<svg style="position: absolute; width: 0; height: 0; overflow: hidden;" version="1.1" xmlns="http://www.w3.org/2000/svg" xmlns:xlink="http://www.w3.org/1999/xlink">
<defs>
<symbol id="icon-logo" viewBox="0 0 16 16">
<title>logo</title>
<path d="M3.647 11.786c-0.041-0.034-0.109-0.056-0.155-0.056-0.040-0.001-0.106 0.024-0.14 0.058h-0c-0.044 0.043-0.081 0.121-0.081 0.248 0 0.158 0.118 0.336 0.281 0.337 0.086-0 0.122-0.036 0.134-0.048 0.039-0.036 0.088-0.121 0.088-0.248 0-0.116-0.050-0.228-0.128-0.29z"></path>
<path d="M15.475 11.29l-0.052-0.542h-2.475l0.476-0.431 0.011-0.011c0.131-0.167 0.172-0.333 0.172-0.456 0-0.026-0.002-0.049-0.005-0.068-0.002-0.017-0.003-0.039-0.003-0.062 0-0.095 0.018-0.219 0.017-0.219 0 0 0.018-0.098 0.019-0.212-0.001-0.011-0.001-0.015-0.001-0.015-0.007-0.154-0.152-0.179-0.206-0.177-0.043 0-0.075 0.007-0.079 0.008l-0.197 0.018c-0.010 0.001-0.016 0.001-0.022 0.001-0.058 0.012-0.092-0.090-0.092-0.090-0.003-0.010-0.005-0.022-0.005-0.034-0.001-0.086 0.062-0.239 0.096-0.318 0.024-0.063 0.028-0.127 0.028-0.18 0-0.058-0.007-0.106-0.010-0.122-0.001-0.002-0.001-0.005-0.001-0.009 0.007 0.001 0.011 0.003 0.012 0.002l0.161 0.033c0.13 0.019 0.251 0.027 0.367 0.027 0.944 0.008 1.562-0.609 1.586-1.583 0-0.019 0-0.037 0-0.054-0.006-1.084-1.049-1.34-1.055-1.341-0.249-0.046-0.486-0.065-0.71-0.065-0.796 0-1.431 0.23-1.565 0.265-0.116 0.023-0.188 0.121-0.182 0.2 0.002 0.074 0.034 0.117 0.037 0.125 0.106 0.134 0.25 0.146 0.317 0.146 0.023 0 0.038-0.001 0.040-0.002l0.232-0.019c0.188-0.015 0.393-0.019 0.58-0.019 0.35 0 0.633 0.017 0.633 0.017 0.737 0.043 0.756 0.563 0.766 0.716 0 0.023-0.001 0.035-0.001 0.036 0 0.027 0.001 0.045 0.001 0.062-0.004 0.379-0.17 0.55-0.357 0.652-0.188 0.099-0.402 0.108-0.455 0.108h-0.020c-0.014 0.001-0.024 0.002-0.033 0.002-0.158 0.003-0.415-0.131-0.617-0.272-0.204-0.14-0.359-0.28-0.361-0.28-0.897-0.85-2.465-0.942-2.472-0.946-0.064-0.004-0.126-0.005-0.189-0.005-1.563 0.003-2.999 0.997-3.006 0.999-0.209 0.155-0.408 0.183-0.534 0.183-0.082 0-0.125-0.012-0.125-0.011l-0.257-0.052c-0.118-0.020-0.142-0.111-0.147-0.239 0-0.1 0.026-0.187 0.025-0.188l0.226-0.903c0.068-0.257 0.089-0.472 0.089-0.635 0-0.237-0.042-0.369-0.045-0.377-0.225-0.603-0.937-0.8-0.943-0.806-0.213-0.067-0.423-0.087-0.599-0.087-0.276 0-0.47 0.050-0.475 0.050-0.502 0.112-1.33 0.556-1.334 0.557-0.006 0.006-0.155 0.075-0.16 0.258-0 0.042 0.009 0.088 0.031 0.136 0.012 0.013 0.059 0.114 0.159 0.169 0.001 0.003 0.039 0.037 0.046 0.056 0.051 0.077 0.307 0.479 0.631 0.504 0.023 0 0.044-0.003 0.061-0.007 0.002-0.001 0.083-0.013 0.171-0.059 0.006-0.004 0.083-0.049 0.158-0.048 0.035 0 0.064 0.007 0.095 0.030 0 0 0.034 0.025 0.069 0.066 0.036 0.042 0.064 0.095 0.063 0.132 0 0.014-0.003 0.028-0.012 0.047-0.002 0.005-0.063 0.145-0.139 0.287-0.081 0.155-0.442 0.963-0.447 1.433 0 0.022 0 0.047 0.004 0.071 0 0.002 0 0.004 0.001 0.006l-1.249-0.005c0 0-0.675-0.074-0.709 0.332 0 0-0.079 0.501 0.439 0.489 0 0 0.124 0.008 0.14-0.098 0 0 0.009-0.101-0.079-0.11-0.113-0.011-0.11-0.244 0.059-0.256 0 0 0.138-0.020 0.245 0.064s1.108 0.833 1.108 0.833 0.051 0.045 0.124 0.022c0.049-0.015 0.104-0.059 0.184-0.067 0.16 0.346 0.427 0.672 0.876 0.853 0.030 0.057 0.048 0.127 0.032 0.203-0.044 0.21-0.034 0.499-0.401 0.455 0 0-0.362-0.156-0.538 0.152 0 0-0.036 0.072-0.051 0.134h-3.069l-0.053 0.555c-0.039 0.316-0.23 0.584-0.498 0.73 0.276 0.15 0.47 0.43 0.501 0.757h0l0.052 0.543h14.847l0.053-0.555h0c0.039-0.316 0.23-0.584 0.497-0.73-0.276-0.15-0.47-0.43-0.5-0.757zM1.116 12.171c0-0.033-0.102-0.135-0.135-0.135 0.033 0 0.135-0.102 0.135-0.135 0 0.033 0.102 0.135 0.135 0.135-0.033 0-0.135 0.102-0.135 0.135zM2.667 12.316c0.006 0.039-0.003 0.025 0.050 0.045 0.017 0.008 0.036 0.014 0.038 0.040-0.004 0.030-0.031 0.031-0.050 0.031s-0.059-0.003-0.092-0.003c-0.023 0-0.106 0.007-0.131 0.007-0.014 0-0.044-0-0.047-0.031 0.003-0.029 0.025-0.035 0.038-0.039 0.056-0.021 0.047-0.010 0.055-0.091 0.002-0.047 0.005-0.123 0.005-0.178v-0.004c-0.128-0-0.279-0.002-0.357-0.002-0.019 0-0.034 0-0.043 0-0 0-0 0.001-0 0.002-0.001 0.008-0.001 0.030-0.001 0.056 0 0.053 0.001 0.123 0.001 0.145 0.004 0.050 0.005 0.053 0.046 0.068 0.023 0.005 0.045 0.015 0.048 0.041v0.001c-0.002 0.021-0.018 0.025-0.026 0.027-0.009 0.002-0.018 0.003-0.026 0.003-0.010 0-0.076-0.005-0.116-0.005-0.024 0-0.071 0.005-0.11 0.005-0.024-0.001-0.048-0.001-0.053-0.031 0.003-0.029 0.026-0.035 0.040-0.040 0.056-0.018 0.048-0.012 0.056-0.052 0.003-0.045 0.010-0.171 0.010-0.351 0-0.014 0.001-0.064 0.001-0.11 0-0.023-0-0.045-0.001-0.060-0.006-0.037 0.002-0.033-0.040-0.046-0.025-0.003-0.046-0.016-0.047-0.040 0.008-0.034 0.033-0.029 0.052-0.032 0.032 0 0.074 0.002 0.101 0.002 0.046 0 0.079-0.002 0.106-0.002 0.024 0.002 0.048-0.001 0.055 0.032-0.001 0.027-0.026 0.037-0.048 0.040-0.047 0.014-0.035 0.008-0.043 0.057-0.002 0.025-0.004 0.116-0.004 0.166 0 0.016 0 0.029 0 0.033v0.004c0.067-0 0.212-0.003 0.399-0.003 0.001-0.003 0.001-0.007 0.001-0.011 0-0.004 0-0.027 0-0.055 0-0.050-0.001-0.12-0.002-0.146-0.007-0.038 0.002-0.029-0.048-0.046-0.016-0.006-0.039-0.011-0.042-0.040 0.006-0.032 0.031-0.031 0.054-0.032 0.015 0 0.086 0.002 0.114 0.002 0.037 0 0.087-0.004 0.101-0.004 0.018 0.001 0.045 0 0.050 0.033-0.004 0.026-0.022 0.030-0.047 0.038-0.042 0.013-0.038 0.016-0.043 0.046-0.005 0.055-0.009 0.177-0.009 0.366-0 0.048 0.004 0.146 0.004 0.163zM3.756 12.381c-0.075 0.052-0.17 0.068-0.23 0.068-0.119-0-0.232-0.051-0.304-0.133-0.062-0.070-0.097-0.164-0.097-0.265-0-0.143 0.064-0.244 0.152-0.315 0.059-0.048 0.157-0.082 0.24-0.082 0.223 0 0.405 0.165 0.405 0.388 0 0.162-0.080 0.278-0.166 0.338zM5.799 9.705c0.092-0.058 0.033-0.257 0.032-0.259l-0.007-0.087c0.006-0.054 0.027-0.094 0.063-0.12 0.034-0.024 0.076-0.030 0.105-0.030 0.022 0 0.039 0.003 0.044 0.004 0.21 0.027 0.378 0.033 0.482 0.033 0.064 0 0.105-0.002 0.11-0.003 0.969-0.096 2.037-0.611 2.048-0.616 0.483-0.204 0.923-0.327 1.309-0.365 0.224-0.023 0.334-0.026 0.41-0.026 0.044 0 0.085 0.001 0.128 0.002l0.021 0.001c0.027 0.001 0.055 0.002 0.086 0.002 0.191 0.003 0.216 0.207 0.217 0.209l0 0.006-0.006-0c-0.052 0-0.255 0.010-0.688 0.135-0.515 0.149-1.93 0.711-1.944 0.717-0.687 0.29-1.215 0.417-1.22 0.418-0.444 0.076-0.863 0.116-1.243 0.118-0.007-0.047-0.013-0.097 0.054-0.139zM5.074 4.535c0.018-0.023 0.043-0.035 0.070-0.035 0.048 0.001 0.106 0.032 0.171 0.082 0 0.001 0.189 0.125 0.19 0.276 0 0-0 0 0 0.002v0.008c0 0.036-0.008 0.205-0.164 0.305-0.001 0.001-0.054 0.040-0.111 0.040h-0.001c-0.023 0-0.048-0.008-0.066-0.027-0.021-0.019-0.029-0.040-0.029-0.059 0-0.044 0.041-0.079 0.049-0.093s0.047-0.087 0.047-0.17c-0-0.056-0.018-0.117-0.076-0.169-0-0.001-0.091-0.059-0.092-0.122 0-0.012 0.004-0.026 0.013-0.037zM3.868 4.501c0.125 0 0.227 0.101 0.227 0.226s-0.102 0.227-0.227 0.227c-0.125 0-0.226-0.102-0.226-0.227s0.101-0.226 0.226-0.226zM4.51 9.647c-0.882-0.461-0.911-1.579-0.945-1.925-0.039-0.405 0.355-1.305 0.433-1.451s0.14-0.29 0.14-0.29c0.092-0.18-0.146-0.357-0.146-0.357-0.152-0.113-0.349 0.011-0.349 0.011-0.073 0.039-0.146 0.050-0.146 0.050-0.236 0.059-0.568-0.393-0.594-0.447s-0.087-0.098-0.087-0.098c-0.059-0.028-0.118-0.127-0.118-0.127-0.003-0.007-0.004-0.013-0.006-0.020 0.083 0.039 0.175 0.006 0.175 0.006 0.149-0.037 0.22 0.090 0.22 0.090 0.067 0.132 0.2 0.177 0.2 0.177 0.205 0.076 0.394-0.005 0.394-0.005 0.183-0.076 0.368-0.090 0.368-0.090 0.366 0.011 0.712 0.244 0.712 0.244 0.304 0.178 0.14 0.494 0.14 0.494l-0.45 1.207c-0.42 1.042 0.233 2.010 0.233 2.010 0.119 0.24 0.119 0.3 0.060 0.465-0.035 0.094-0.144 0.082-0.233 0.055zM5.067 11.743c-0.044 0.015-0.053 0.018-0.058 0.084-0.001 0.049-0.008 0.172-0.010 0.229-0.005 0.196-0.061 0.303-0.149 0.352-0.056 0.032-0.119 0.038-0.17 0.038-0.106-0.001-0.183-0.043-0.215-0.071-0.068-0.064-0.095-0.154-0.095-0.341 0-0.16-0.004-0.249-0.004-0.262-0.002-0.011-0.006-0.022-0.046-0.031-0.013-0.004-0.037-0.009-0.040-0.038 0.007-0.034 0.033-0.031 0.052-0.033 0.048 0 0.075 0.003 0.115 0.003s0.082-0.002 0.108-0.002c0.020 0.002 0.047-0.003 0.054 0.032-0.004 0.029-0.027 0.034-0.049 0.040-0.039 0.010-0.044 0.010-0.052 0.047-0.004 0.023-0.005 0.089-0.005 0.181 0 0.038 0 0.080 0 0.126 0 0.123 0.026 0.163 0.057 0.2 0.024 0.028 0.095 0.055 0.147 0.055 0.068-0.001 0.164-0.030 0.189-0.141 0.013-0.057 0.024-0.149 0.024-0.275 0-0.072-0.003-0.13-0.004-0.142-0.007-0.040 0.002-0.037-0.058-0.055-0.018-0.006-0.035-0.012-0.039-0.039 0.002-0.025 0.026-0.031 0.045-0.031 0.029 0 0.060 0.003 0.094 0.003 0.045 0 0.068-0.002 0.101-0.002 0.017 0 0.044 0.002 0.047 0.032-0.003 0.024-0.020 0.030-0.038 0.038zM5.783 12.405c-0.041 0.027-0.108 0.043-0.162 0.043-0.039-0-0.114-0.012-0.156-0.032-0.020-0.016-0.030-0.030-0.035-0.049-0.005-0.038-0.017-0.084-0.017-0.107 0.008-0.022 0.003-0.028 0.035-0.041 0.037 0.010 0.038 0.039 0.059 0.075 0.023 0.052 0.092 0.079 0.127 0.078 0.067-0.001 0.114-0.045 0.115-0.115-0.001-0.039-0.015-0.081-0.131-0.155-0.095-0.062-0.17-0.131-0.17-0.236 0-0.058 0.026-0.113 0.068-0.151 0.038-0.034 0.096-0.059 0.178-0.059 0.058 0 0.118 0.018 0.136 0.021l-0.003 0.019 0.006-0.018c0.024 0.015 0.022 0.023 0.027 0.038 0.002 0.021 0.011 0.083 0.011 0.092s0 0.017-0.001 0.025c0 0.007-0.009 0.024-0.026 0.024-0.019-0.001-0.038-0.014-0.045-0.037-0.011-0.034-0.042-0.068-0.048-0.071-0.017-0.013-0.039-0.022-0.067-0.022-0.064 0.001-0.108 0.046-0.109 0.111-0 0.066 0.046 0.096 0.146 0.163 0.086 0.058 0.162 0.121 0.162 0.232-0 0.062-0.035 0.13-0.1 0.173zM6.836 12.289c-0.004 0.017-0.030 0.107-0.044 0.128-0.008 0.008-0.013 0.018-0.034 0.021-0.014 0-0.181-0.009-0.362-0.009-0.058 0-0.081 0.005-0.126 0.006-0.018 0-0.050-0.001-0.053-0.034 0.007-0.032 0.028-0.030 0.046-0.037 0.057-0.017 0.059-0.010 0.066-0.064 0.003-0.046 0.009-0.177 0.009-0.315 0-0.066 0-0.106 0-0.132s-0-0.040-0.001-0.055c-0.006-0.047-0.001-0.041-0.048-0.055-0.021-0.006-0.044-0.010-0.047-0.038 0.005-0.033 0.033-0.034 0.050-0.035 0.054 0 0.097 0.005 0.171 0.005h0.164c0.035 0 0.085-0.001 0.091-0 0.001-0.001 0.004-0.003 0.012-0.004 0.026 0.006 0.023 0.017 0.029 0.032 0 0.050 0.002 0.082 0.002 0.106-0.001 0.019-0.006 0.045-0.036 0.048-0.033-0.005-0.033-0.031-0.037-0.041-0.016-0.055-0.026-0.054-0.059-0.061-0.019-0.003-0.068-0.005-0.111-0.005-0.014 0-0.027 0-0.039 0.001-0.001 0.002-0.003 0.006-0.004 0.014-0.001 0.020-0.004 0.151-0.004 0.216 0 0.012 0 0.023 0 0.028h0.061c0.109-0.005 0.088 0.004 0.111-0.044 0.008-0.017 0.016-0.034 0.038-0.036 0.032 0.007 0.026 0.030 0.029 0.039 0 0.003-0 0.004-0 0.006-0.002 0.031-0.003 0.052-0.003 0.079 0 0.029 0.002 0.044 0.004 0.067v0.006c-0.001 0.019-0.002 0.042-0.032 0.047-0.028-0.004-0.032-0.024-0.038-0.038-0.020-0.050 0-0.035-0.071-0.044-0.032-0.002-0.071-0.002-0.101-0.002-0.002 0.018-0.003 0.064-0.003 0.105 0 0.023 0 0.044 0 0.061-0 0.030 0.005 0.073 0.010 0.086 0.002 0.008 0.007 0.012 0.006 0.012 0.018 0.003 0.055 0.007 0.098 0.007 0.012 0 0.082-0.002 0.101-0.007 0.031-0.008 0.054-0.023 0.080-0.072 0.013-0.024 0.019-0.039 0.043-0.042 0.032 0.008 0.026 0.029 0.029 0.041 0 0.004 0 0.008-0.001 0.011zM8.36 12.435c-0.038 0-0.092-0.005-0.14-0.005-0.035 0-0.050 0.002-0.079 0.002s-0.052-0.008-0.054-0.033c0.001-0.022 0.019-0.033 0.042-0.037 0.036-0.010 0.030-0.013 0.031-0.019 0-0.004-0.001-0.009-0.002-0.015-0.008-0.042-0.035-0.113-0.060-0.184-0.003-0.001-0.010-0.002-0.021-0.002-0.057-0-0.149 0.001-0.178 0.004-0.028 0.070-0.056 0.166-0.055 0.185 0.002 0.006-0.006 0.012 0.041 0.029 0.019 0.007 0.040 0.010 0.044 0.039-0.006 0.036-0.036 0.032-0.050 0.033-0.021 0-0.048-0.003-0.088-0.003s-0.097 0.005-0.116 0.005c-0.019 0-0.044-0.007-0.045-0.030 0.002-0.022 0.017-0.033 0.038-0.041 0.057-0.021 0.057-0.013 0.091-0.084 0.025-0.055 0.152-0.392 0.202-0.514 0.003-0.007 0.005-0.014 0.004-0.015-0-0.002 0.001-0.014 0.006-0.021 0.009-0.011 0.024-0.040 0.034-0.056 0.008-0.008 0.014-0.019 0.032-0.020 0.023 0.004 0.027 0.019 0.036 0.042l-0.018 0.006 0.018-0.006c0.009 0.029 0.027 0.079 0.049 0.137 0.058 0.162 0.142 0.383 0.16 0.428 0.039 0.091 0.043 0.087 0.093 0.101 0.017 0.006 0.037 0.011 0.040 0.038-0.002 0.026-0.027 0.034-0.055 0.034zM9.508 11.743c-0.047 0.015-0.049 0.009-0.056 0.064-0.002 0.039-0.012 0.259-0.012 0.45 0 0.045 0.008 0.128 0.008 0.148-0 0.015-0.006 0.040-0.035 0.043-0.031-0.003-0.051-0.028-0.065-0.043-0.020-0.024-0.039-0.053-0.069-0.089-0.098-0.116-0.273-0.314-0.377-0.438-0.001 0.025-0.003 0.057-0.004 0.114 0 0.075-0.002 0.189-0.002 0.257 0 0.023 0 0.041 0.001 0.048 0.007 0.049 0.006 0.048 0.055 0.067 0.026 0.004 0.043 0.020 0.043 0.039-0.005 0.034-0.035 0.033-0.055 0.034-0.034 0-0.081-0.005-0.119-0.005-0.023 0-0.052 0.002-0.072 0.002-0.012-0-0.043 0.003-0.048-0.032 0.003-0.027 0.023-0.032 0.035-0.038 0.053-0.022 0.056-0.008 0.065-0.087 0.006-0.090 0.021-0.358 0.021-0.449-0-0.033-0.003-0.040-0.004-0.041-0.030-0.034-0.031-0.030-0.084-0.045-0.012-0.005-0.034-0.007-0.038-0.036 0.004-0.031 0.032-0.033 0.056-0.033 0.026 0 0.080 0.003 0.136 0.003 0.020 0.002 0.028 0.012 0.038 0.021 0.017 0.020 0.045 0.054 0.089 0.111 0.045 0.057 0.258 0.29 0.348 0.389 0.001-0.017 0.001-0.041 0.001-0.070 0-0.056-0.001-0.132-0.001-0.219 0-0.037-0.003-0.076-0.006-0.111-0.003-0.019 0-0.031-0.056-0.050-0.024-0.007-0.044-0.021-0.044-0.043 0.011-0.036 0.035-0.026 0.048-0.029 0.029 0 0.060 0.001 0.096 0.001 0.038 0 0.074-0.004 0.105-0.005 0.017 0 0.045 0.007 0.045 0.032-0.001 0.020-0.017 0.034-0.042 0.041zM9.611 10.471c0 0-0.047 0.166-0.047 0.277h-4.817c0.077-0.027 0.148-0.061 0.207-0.105 0.268-0.197 0.606-0.508 0.776-0.668 0.323-0.001 0.751-0.029 1.284-0.12 0.009-0.002 0.534-0.125 1.242-0.424 0-0 0.348-0.139 0.762-0.296 0.022 0.252 0.155 0.749 0.859 0.841 0 0 0.174 0.017 0.338 0.002 0 0 0.245-0.008 0.163 0.217 0 0-0.073 0.144-0.247 0.118 0 0-0.43-0.137-0.518 0.158zM10.649 11.702l-0.010-0 0.010 0.001c-0.003 0.028-0.024 0.033-0.040 0.039-0.056 0.011-0.085 0.028-0.126 0.075-0.039 0.045-0.116 0.134-0.169 0.206 0.008 0.018 0.142 0.216 0.164 0.247 0.046 0.060 0.052 0.072 0.123 0.092 0.022 0.007 0.039 0.017 0.041 0.040-0.003 0.028-0.029 0.033-0.053 0.033-0.042-0-0.088-0.007-0.156-0.007-0.030 0-0.077 0.005-0.092 0.005-0.024 0-0.046-0.010-0.047-0.034-0-0.021 0.020-0.034 0.039-0.038 0.015-0.004 0.028-0.007 0.033-0.010-0.025-0.044-0.114-0.182-0.14-0.218-0.035 0.044-0.082 0.105-0.11 0.148-0.023 0.033-0.030 0.054-0.030 0.060-0.001 0.004 0.002 0.007 0.029 0.018 0.018 0.007 0.038 0.014 0.040 0.038-0.004 0.032-0.032 0.033-0.047 0.033-0.029 0-0.080-0.003-0.115-0.003-0.044 0-0.088 0.005-0.116 0.006-0.020 0-0.045-0.003-0.048-0.032 0.002-0.028 0.026-0.039 0.058-0.044 0.047-0.009 0.096-0.042 0.12-0.069 0.047-0.052 0.107-0.122 0.175-0.217h0c-0.013-0.027-0.122-0.199-0.176-0.272-0.024-0.033-0.062-0.052-0.099-0.060-0.023-0.005-0.043-0.014-0.046-0.039 0.001-0.023 0.025-0.033 0.052-0.033 0.023 0.001 0.097 0.006 0.135 0.006 0.043 0 0.062-0.002 0.096-0.002 0.014 0.002 0.041-0.001 0.046 0.032 0.001 0.019-0.018 0.033-0.040 0.038-0.013 0.004-0.013 0.005-0.013 0.005s0 0.003 0.003 0.009c0.029 0.052 0.105 0.172 0.13 0.206 0.041-0.049 0.123-0.161 0.139-0.19 0.003-0.007 0.004-0.011 0.004-0.013 0-0.001-0.003-0.008-0.034-0.014-0.024-0.005-0.042-0.016-0.043-0.037 0.004-0.030 0.030-0.034 0.052-0.034 0.034 0 0.070 0.002 0.099 0.002 0.026 0 0.090-0.003 0.117-0.003 0.016 0.003 0.036-0.002 0.044 0.030h0v0.001h-0zM11.247 12.436c-0.058 0-0.138-0.007-0.166-0.007-0.032 0-0.043 0.002-0.085 0.002-0.024 0-0.048-0.011-0.048-0.035 0.005-0.029 0.027-0.032 0.048-0.038 0.051-0.016 0.041-0.011 0.049-0.064 0.003-0.037 0.006-0.154 0.006-0.247 0-0.069-0.001-0.208-0.003-0.243-0.008-0.054 0.008-0.046-0.050-0.061-0.026-0.004-0.047-0.016-0.047-0.039 0.004-0.031 0.030-0.032 0.047-0.033 0.030 0 0.086 0.003 0.121 0.003 0.053 0 0.079-0.003 0.119-0.003 0.018 0 0.045 0.004 0.047 0.033-0.003 0.028-0.026 0.033-0.044 0.038-0.058 0.016-0.045 0.022-0.053 0.055-0.005 0.034-0.006 0.106-0.006 0.324 0 0.061 0.001 0.13 0.003 0.165 0.008 0.061-0.002 0.060 0.065 0.078 0.022 0.004 0.043 0.013 0.045 0.038-0.008 0.034-0.033 0.031-0.049 0.034zM12.226 12.289c-0.004 0.017-0.030 0.106-0.044 0.129-0.008 0.007-0.012 0.018-0.034 0.021-0.014 0-0.181-0.009-0.362-0.009-0.058 0-0.081 0.005-0.126 0.006-0.018 0-0.050-0.001-0.053-0.034 0.006-0.032 0.028-0.030 0.046-0.037 0.057-0.017 0.059-0.010 0.067-0.064 0.003-0.046 0.009-0.177 0.009-0.315 0-0.066 0-0.106 0-0.132s-0-0.040-0.001-0.055c-0.006-0.047-0.001-0.041-0.048-0.055-0.021-0.006-0.044-0.010-0.047-0.038 0.005-0.033 0.032-0.034 0.050-0.035 0.053 0 0.097 0.005 0.17 0.005h0.164c0.035 0 0.085-0.001 0.091-0 0.001-0.001 0.004-0.003 0.011-0.004 0.026 0.006 0.023 0.017 0.029 0.032 0 0.050 0.002 0.082 0.002 0.106-0.001 0.019-0.006 0.045-0.036 0.048-0.033-0.005-0.032-0.031-0.037-0.041-0.016-0.055-0.026-0.054-0.059-0.061-0.018-0.003-0.067-0.005-0.11-0.005-0.014 0-0.027 0-0.038 0.001-0.001 0.002-0.003 0.006-0.004 0.014-0.001 0.020-0.004 0.151-0.004 0.216 0 0.012 0 0.023 0 0.028h0.061c0.109-0.005 0.088 0.004 0.111-0.044 0.008-0.018 0.016-0.034 0.038-0.036 0.032 0.007 0.026 0.030 0.029 0.039-0 0.003-0 0.004-0 0.006-0.002 0.031-0.003 0.052-0.003 0.079 0 0.029 0.002 0.044 0.003 0.067v0.005c-0.001 0.019-0.002 0.042-0.031 0.047-0.029-0.004-0.032-0.024-0.038-0.038-0.020-0.050 0-0.035-0.071-0.044-0.031-0.002-0.071-0.002-0.101-0.002-0.002 0.018-0.003 0.064-0.002 0.105v0.061c-0 0.030 0.005 0.073 0.010 0.086 0.002 0.008 0.007 0.011 0.006 0.012 0.018 0.003 0.055 0.007 0.098 0.007 0.012 0 0.082-0.002 0.101-0.007 0.030-0.008 0.054-0.023 0.079-0.072 0.013-0.024 0.019-0.039 0.043-0.042 0.032 0.008 0.026 0.028 0.029 0.041 0 0.005-0 0.008-0.001 0.011zM12.185 10.452c-0.004 0.014-0.035 0.129-0.036 0.235 0.001 0.017 0.001 0.039 0.005 0.061h-1.782c0.095-0.047 0.163-0.095 0.163-0.095s0.033-0.021 0.050-0.036c0.112-0.094 0.638-0.611 0.686-0.637 0 0 0.105-0.045 0.075-0.101 0 0-0.022-0.068-0.12-0.064 0 0-0.93-0.033-0.367-1.060 0.108 0.245 0.348 0.614 0.855 0.794-0.003-0.002 0.441 0.188 0.834 0.28 0.004 0.001 0.049 0.009 0.102 0.034 0.030 0.013 0.061 0.031 0.085 0.052-0.023 0.027-0.043 0.066-0.050 0.121 0 0.017 0.004 0.042 0.015 0.064 0.001 0.002 0.003 0.009 0.005 0.018-0.124 0.006-0.406 0.049-0.521 0.333zM13.25 11.698c-0.010 0.033-0.017 0.065-0.024 0.123-0.003 0.019-0.013 0.036-0.038 0.038-0.028-0.003-0.032-0.027-0.035-0.053-0.011-0.053-0-0.041-0.072-0.049-0.006-0-0.027-0.001-0.050-0.001-0.034-0-0.079 0.001-0.095 0.002v0.269c0 0.129 0 0.235 0.004 0.274 0.010 0.049-0.003 0.042 0.065 0.062 0.018 0.007 0.038 0.008 0.045 0.039-0.008 0.039-0.041 0.030-0.051 0.032-0.011 0-0.078-0.006-0.127-0.006-0.054 0-0.108 0.008-0.127 0.008-0.024-0.002-0.047-0.003-0.053-0.032 0.003-0.026 0.020-0.033 0.036-0.038 0.073-0.022 0.060-0.015 0.069-0.102 0.002-0.065 0.008-0.293 0.008-0.378v-0.128c-0.030-0.002-0.113-0.005-0.128-0.005-0.041 0-0.056 0.006-0.071 0.022 0 0-0.014 0.016-0.031 0.050-0.008 0.023-0.027 0.035-0.038 0.034h-0.001c-0.034-0.010-0.027-0.031-0.030-0.045 0.001-0.029 0.021-0.084 0.021-0.147 0.004-0.023 0.013-0.033 0.036-0.038 0.030 0.009 0.020 0.018 0.031 0.023 0.002 0.003 0.020 0.017 0.027 0.016 0.027 0.003 0.116 0.007 0.258 0.007 0.058 0 0.208-0.001 0.254-0.002 0.039-0.002 0.054-0.008 0.067-0.018 0.007-0.004 0.013-0.009 0.025-0.009 0.022 0.002 0.026 0.020 0.026 0.032 0 0.007-0.001 0.012-0.003 0.019zM14.276 11.739c-0.048 0.012-0.075 0.036-0.111 0.080-0.051 0.064-0.109 0.161-0.147 0.217-0.010 0.014-0.026 0.053-0.025 0.057 0 0.061 0.002 0.201 0.007 0.232 0.004 0.015 0.002 0.020 0.065 0.037 0.022 0.006 0.043 0.014 0.044 0.039-0.005 0.032-0.032 0.031-0.053 0.032-0.019 0-0.073-0.005-0.097-0.005-0.066 0-0.137 0.007-0.155 0.007-0.021-0.001-0.044-0.004-0.047-0.031 0.002-0.024 0.021-0.035 0.046-0.039 0.056-0.014 0.055-0.030 0.057-0.036 0.003-0.044 0.003-0.164 0.003-0.229 0 0-0.006-0.028-0.008-0.032-0.018-0.038-0.087-0.151-0.14-0.231-0.054-0.079-0.059-0.086-0.102-0.096-0.024-0.006-0.044-0.015-0.047-0.041 0.005-0.031 0.030-0.030 0.050-0.032 0.019 0.001 0.075 0.006 0.127 0.006 0.030 0 0.039-0.002 0.084-0.002 0.019 0 0.043 0.008 0.044 0.032-0.001 0.022-0.018 0.034-0.040 0.040-0.006 0.001-0.011 0.003-0.013 0.004 0.002 0.003 0.004 0.011 0.010 0.019 0.012 0.022 0.084 0.143 0.134 0.225 0.036-0.054 0.108-0.172 0.133-0.213 0.007-0.012 0.009-0.020 0.009-0.023 0-0.001 0-0.005-0.030-0.012-0.022-0.006-0.038-0.022-0.038-0.041 0.008-0.035 0.033-0.027 0.045-0.029 0.029 0 0.047 0.001 0.072 0.001 0.041 0 0.105-0.005 0.124-0.005 0.015 0.002 0.037-0 0.043 0.030-0.003 0.028-0.025 0.033-0.044 0.039zM14.817 12.171c0-0.033-0.102-0.135-0.135-0.135 0.033 0 0.135-0.102 0.135-0.135 0 0.033 0.102 0.135 0.135 0.135-0.033 0-0.135 0.102-0.135 0.135z"></path>
<path d="M3.846 3.44l0.051 0.313c0.057 0.162 0.208 0.173 0.254 0.173 0.010 0 0.017-0.001 0.017-0.001h1.172c-0.004 0 0.003 0.001 0.014 0.001h0.005c0.051 0 0.194-0.016 0.247-0.163l0.054-0.325c0-0.001 0.004-0.025 0.004-0.058 0.004-0.068-0.034-0.22-0.199-0.232-0.006-0.001-0.016-0.002-0.028-0.002-0.052-0.003-0.151 0.030-0.215 0.159-0.003 0.007-0.016 0.041-0.039 0.077-0.023 0.037-0.056 0.063-0.070 0.063-0.006 0-0.007 0.001-0.013 0.001-0.014-0.007-0.038 0.012-0.060-0.088-0.007 0-0.031-0.307-0.282-0.331h-0.014c-0.252 0.024-0.277 0.331-0.283 0.33-0.022 0.101-0.045 0.081-0.060 0.087-0.007 0-0.007-0-0.007 0-0.021 0.005-0.050-0.031-0.073-0.066-0.021-0.034-0.039-0.067-0.039-0.067-0.068-0.136-0.166-0.169-0.218-0.167-0.010 0-0.019 0.001-0.025 0.002-0.167 0.011-0.205 0.164-0.201 0.232-0 0.034 0.005 0.058 0.006 0.061zM4.054 3.27l0.013 0c0.012 0.002 0.052-0.002 0.104 0.092 0.005-0.005 0.046 0.173 0.206 0.206 0.001 0 0.012 0.001 0.028 0.001 0.054 0.007 0.168-0.045 0.184-0.193 0-0 0.060-0.227 0.161-0.227l0.011-0c0.1 0 0.159 0.227 0.159 0.227 0.016 0.147 0.129 0.2 0.184 0.194 0.019 0 0.031-0.003 0.035-0.003 0.153-0.031 0.195-0.21 0.203-0.212 0.048-0.087 0.084-0.084 0.1-0.085l0.007 0c0.082 0.007 0.087 0.054 0.093 0.109 0 0.022-0.003 0.036-0.002 0.036l-0.053 0.317c-0.018 0.057-0.095 0.066-0.13 0.068-0.007 0-0.009-0-0.009-0h-1.195c-0.035-0.001-0.112-0.010-0.131-0.077l-0.050-0.306c-0.001-0.003-0.004-0.017-0.004-0.038 0.006-0.055 0.005-0.102 0.088-0.109z"></path>
<path d="M3.868 4.863c0.075 0 0.135-0.061 0.135-0.135s-0.060-0.135-0.135-0.135c-0.075 0-0.135 0.060-0.135 0.135s0.060 0.135 0.135 0.135z"></path>
</symbol>
</defs>
</svg>
