<?xml version="1.0" encoding="utf-8"?>
<!-- Generator: Adobe Illustrator 21.0.0, SVG Export Plug-In . SVG Version: 6.00 Build 0)  -->
<svg version="1.1" id="Layer_1" xmlns="http://www.w3.org/2000/svg" xmlns:xlink="http://www.w3.org/1999/xlink" x="0px" y="0px"
	 viewBox="0 0 172.456 111.423" style="enable-background:new 0 0 172.456 111.423;" xml:space="preserve">
<style type="text/css">
	.st0{fill:#222222;}
</style>
<g>
	<path class="st0" d="M39.155,94.708c-0.443-0.365-1.18-0.607-1.675-0.605c-0.435-0.008-1.149,0.255-1.512,0.627l-0.146-0.148
		l0.142,0.148c-0.476,0.469-0.872,1.313-0.872,2.68c0.003,1.708,1.277,3.638,3.041,3.641c0.934-0.003,1.322-0.394,1.448-0.522
		c0.426-0.386,0.953-1.309,0.953-2.684C40.535,96.59,39.991,95.377,39.155,94.708z"/>
	<path class="st0" d="M85.478,97.633c0.434-0.006,1.065-0.003,1.464-0.021c-0.177-0.525-0.524-1.516-0.722-2.044
		C85.988,96.187,85.631,97.159,85.478,97.633z"/>
	<path class="st0" d="M167.045,89.346l-0.559-5.864h-26.761l5.147-4.659l0.121-0.122c1.413-1.811,1.855-3.596,1.855-4.927
		c0-0.284-0.022-0.531-0.051-0.739c-0.022-0.188-0.037-0.422-0.037-0.667c0-1.023,0.197-2.37,0.185-2.37c0,0,0.195-1.06,0.202-2.288
		c-0.006-0.117-0.006-0.16-0.006-0.16c-0.08-1.668-1.645-1.934-2.225-1.918c-0.466,0-0.807,0.076-0.852,0.083l-2.125,0.197
		c-0.107,0.011-0.175,0.012-0.239,0.012c-0.627,0.125-0.994-0.978-0.999-0.978c-0.029-0.113-0.049-0.243-0.049-0.371
		c-0.014-0.934,0.671-2.579,1.043-3.442c0.259-0.685,0.307-1.375,0.307-1.946c0-0.632-0.073-1.141-0.105-1.318
		c-0.006-0.019-0.01-0.052-0.015-0.094c0.073,0.013,0.124,0.032,0.128,0.027l1.74,0.352c1.406,0.203,2.711,0.293,3.964,0.293
		c10.203,0.082,16.893-6.583,17.148-17.112c0.005-0.203,0.005-0.403,0.005-0.586c-0.061-11.72-11.347-14.489-11.406-14.499
		c-2.691-0.502-5.26-0.702-7.681-0.702c-8.605,0-15.472,2.491-16.919,2.868c-1.251,0.254-2.032,1.311-1.971,2.162
		c0.021,0.801,0.365,1.269,0.405,1.347c1.149,1.449,2.707,1.58,3.423,1.58c0.246,0,0.414-0.011,0.436-0.022l2.508-0.209
		c2.036-0.161,4.247-0.209,6.267-0.209c3.779,0,6.845,0.179,6.848,0.179c7.971,0.467,8.174,6.084,8.286,7.737
		c0,0.254-0.014,0.378-0.014,0.384c0.005,0.295,0.014,0.488,0.014,0.669c-0.039,4.1-1.835,5.944-3.865,7.045
		c-2.03,1.075-4.347,1.172-4.92,1.163h-0.212c-0.154,0.015-0.263,0.023-0.361,0.023c-1.706,0.036-4.483-1.414-6.669-2.94
		c-2.205-1.516-3.887-3.028-3.898-3.028c-9.696-9.194-26.654-10.188-26.733-10.224c-0.691-0.038-1.363-0.058-2.04-0.058
		c-16.898,0.027-32.427,10.775-32.505,10.805c-2.262,1.676-4.413,1.983-5.77,1.983c-0.89,0-1.353-0.13-1.353-0.115l-2.78-0.559
		c-1.281-0.218-1.531-1.197-1.592-2.582c0-1.078,0.284-2.027,0.266-2.034l2.441-9.761c0.739-2.781,0.957-5.1,0.957-6.87
		c0-2.566-0.455-3.989-0.487-4.074c-2.437-6.523-10.127-8.655-10.198-8.713c-2.306-0.726-4.574-0.939-6.479-0.939
		c-2.988,0-5.083,0.536-5.138,0.544c-5.429,1.206-14.378,6.012-14.42,6.021c-0.064,0.061-1.673,0.811-1.735,2.794
		c-0.004,0.45,0.102,0.956,0.337,1.468c0.126,0.137,0.633,1.228,1.719,1.824c0.015,0.028,0.426,0.398,0.501,0.61
		c0.555,0.837,3.321,5.183,6.825,5.453c0.251,0,0.474-0.037,0.662-0.075c0.021-0.006,0.897-0.137,1.851-0.642
		c0.063-0.048,0.898-0.534,1.709-0.522c0.376,0.003,0.695,0.08,1.022,0.321c0.004,0.002,0.371,0.273,0.742,0.714
		c0.39,0.449,0.691,1.023,0.679,1.424c0,0.152-0.034,0.306-0.126,0.508c-0.024,0.051-0.679,1.572-1.508,3.108
		c-0.872,1.68-4.779,10.416-4.831,15.492c0,0.242,0.004,0.504,0.04,0.771c0.002,0.019,0.003,0.042,0.006,0.061l-13.509-0.051
		c0,0-7.297-0.795-7.668,3.589c0,0-0.851,5.414,4.747,5.29c0,0,1.338,0.089,1.519-1.064c0,0,0.094-1.096-0.851-1.189
		c-1.217-0.121-1.186-2.642,0.638-2.764c0,0,1.492-0.214,2.644,0.697c1.157,0.917,11.981,9.002,11.981,9.002
		s0.548,0.486,1.338,0.236c0.534-0.159,1.125-0.639,1.987-0.723c1.735,3.736,4.62,7.268,9.47,9.224
		c0.321,0.62,0.52,1.368,0.347,2.195c-0.477,2.276-0.371,5.395-4.341,4.917c0,0-3.914-1.69-5.817,1.642c0,0-0.384,0.782-0.551,1.451
		H5.951l-0.569,5.996C4.961,92.892,2.896,95.794,0,97.367c2.98,1.617,5.078,4.648,5.413,8.188h0.001l0.558,5.868h160.534l0.57-5.999
		h0.002c0.421-3.413,2.483-6.315,5.378-7.89C169.476,95.917,167.38,92.89,167.045,89.346z M11.787,98.87
		c0-0.356-1.102-1.458-1.46-1.458c0.358,0,1.46-1.1,1.46-1.457c0,0.358,1.1,1.457,1.458,1.457
		C12.887,97.412,11.787,98.514,11.787,98.87z M28.56,100.441c0.065,0.417-0.032,0.275,0.546,0.488
		c0.189,0.083,0.385,0.152,0.416,0.431c-0.04,0.328-0.338,0.337-0.544,0.337c-0.214,0-0.637-0.034-0.999-0.034
		c-0.248,0-1.149,0.073-1.411,0.075c-0.154,0-0.473-0.002-0.51-0.34c0.03-0.311,0.274-0.374,0.415-0.422
		c0.61-0.23,0.511-0.108,0.596-0.986c0.024-0.507,0.052-1.333,0.052-1.927v-0.044c-1.381-0.003-3.021-0.023-3.863-0.023
		c-0.201,0-0.371,0-0.469,0.003c-0.003,0.005-0.004,0.011-0.004,0.02c-0.007,0.086-0.014,0.326-0.014,0.61
		c0,0.573,0.014,1.335,0.014,1.572c0.043,0.543,0.05,0.572,0.496,0.739c0.244,0.058,0.485,0.161,0.514,0.443v0.01
		c-0.026,0.227-0.198,0.265-0.277,0.289c-0.093,0.026-0.193,0.032-0.281,0.032c-0.107,0-0.827-0.05-1.251-0.05
		c-0.261,0-0.771,0.05-1.192,0.05c-0.257-0.009-0.517-0.009-0.571-0.331c0.031-0.317,0.285-0.381,0.433-0.431
		c0.609-0.2,0.519-0.129,0.604-0.559c0.032-0.487,0.108-1.846,0.108-3.799c0-0.151,0.01-0.69,0.01-1.19
		c0-0.248-0.003-0.483-0.01-0.653c-0.064-0.398,0.023-0.354-0.433-0.497c-0.268-0.037-0.5-0.174-0.507-0.429
		c0.087-0.372,0.355-0.312,0.558-0.344c0.349,0,0.796,0.026,1.096,0.026c0.502,0,0.857-0.026,1.144-0.026
		c0.264,0.026,0.515-0.006,0.596,0.344c-0.007,0.287-0.277,0.401-0.522,0.429c-0.508,0.149-0.383,0.082-0.467,0.614
		c-0.027,0.275-0.041,1.255-0.041,1.799c0,0.178,0,0.318,0.005,0.358v0.042c0.729-0.003,2.295-0.031,4.31-0.031
		c0.007-0.033,0.012-0.071,0.016-0.12c0-0.038,0.003-0.292,0.003-0.598c0-0.541-0.006-1.293-0.026-1.574
		c-0.079-0.415,0.026-0.311-0.514-0.5c-0.17-0.061-0.421-0.121-0.451-0.429c0.061-0.344,0.336-0.332,0.582-0.344
		c0.166,0,0.933,0.025,1.228,0.025c0.404,0,0.944-0.038,1.097-0.038c0.198,0.015,0.483,0,0.544,0.356
		c-0.048,0.284-0.241,0.324-0.51,0.406c-0.45,0.141-0.414,0.178-0.465,0.502c-0.059,0.597-0.097,1.91-0.097,3.958
		C28.511,99.197,28.56,100.259,28.56,100.441z M40.331,101.142c-0.812,0.566-1.84,0.735-2.49,0.738
		c-1.287-0.003-2.507-0.554-3.283-1.443c-0.673-0.753-1.053-1.778-1.053-2.861c-0.003-1.542,0.69-2.641,1.642-3.401
		c0.641-0.518,1.698-0.883,2.6-0.886c2.413,0.003,4.382,1.78,4.384,4.193C42.131,99.238,41.263,100.486,40.331,101.142z
		 M62.421,72.21c0.992-0.628,0.354-2.779,0.346-2.801l-0.076-0.938c0.067-0.586,0.288-1.018,0.676-1.295
		c0.371-0.264,0.821-0.32,1.131-0.32c0.239,0,0.419,0.032,0.473,0.043c2.268,0.292,4.089,0.353,5.216,0.353
		c0.696,0,1.139-0.024,1.185-0.032c10.478-1.038,22.03-6.606,22.144-6.661c5.219-2.206,9.985-3.536,14.159-3.951
		c2.427-0.246,3.606-0.279,4.438-0.279c0.481,0,0.919,0.011,1.38,0.025l0.227,0.006c0.287,0.009,0.594,0.017,0.932,0.022
		c2.06,0.028,2.338,2.243,2.341,2.265l0.002,0.066l-0.068-0.002c-0.562,0-2.755,0.107-7.436,1.462
		c-5.564,1.615-20.867,7.687-21.018,7.749c-7.429,3.135-13.14,4.504-13.193,4.515c-4.806,0.827-9.329,1.255-13.444,1.273
		C61.76,73.198,61.697,72.667,62.421,72.21z M54.58,16.31c0.198-0.253,0.465-0.378,0.755-0.378c0.523,0.007,1.142,0.348,1.854,0.884
		c0.005,0.006,2.045,1.355,2.056,2.981c0,0-0.005,0,0,0.022v0.082c0,0.391-0.09,2.212-1.772,3.299
		c-0.006,0.009-0.584,0.431-1.198,0.431h-0.017c-0.254,0-0.514-0.086-0.719-0.29c-0.226-0.21-0.314-0.428-0.314-0.64
		c0.005-0.477,0.448-0.859,0.525-1.009c0.079-0.158,0.512-0.942,0.512-1.842c-0.003-0.605-0.198-1.268-0.826-1.828
		c-0.003-0.006-0.988-0.633-1-1.316C54.436,16.572,54.476,16.431,54.58,16.31z M41.538,15.946c1.35,0,2.449,1.097,2.449,2.449
		s-1.099,2.452-2.449,2.452c-1.352,0-2.447-1.1-2.447-2.452S40.186,15.946,41.538,15.946z M48.48,71.577
		c-9.542-4.982-9.851-17.072-10.215-20.814c-0.423-4.379,3.834-14.11,4.686-15.687c0.846-1.582,1.519-3.136,1.519-3.136
		c0.999-1.941-1.582-3.859-1.582-3.859c-1.643-1.217-3.771,0.124-3.771,0.124c-0.791,0.425-1.58,0.542-1.58,0.542
		c-2.557,0.643-6.143-4.251-6.419-4.831c-0.272-0.578-0.941-1.063-0.941-1.063c-0.639-0.304-1.278-1.368-1.278-1.368
		c-0.03-0.078-0.042-0.146-0.069-0.219c0.892,0.426,1.894,0.064,1.894,0.064c1.609-0.396,2.374,0.973,2.374,0.973
		c0.728,1.431,2.159,1.916,2.159,1.916c2.218,0.822,4.255-0.057,4.255-0.057c1.976-0.824,3.982-0.973,3.982-0.973
		c3.957,0.118,7.695,2.639,7.695,2.639c3.283,1.92,1.511,5.338,1.511,5.338l-4.866,13.055C43.296,55.49,50.35,65.95,50.35,65.95
		c1.291,2.597,1.291,3.242,0.644,5.03C50.621,71.998,49.435,71.87,48.48,71.577z M54.503,94.241
		c-0.477,0.165-0.573,0.19-0.628,0.912c-0.014,0.526-0.085,1.858-0.109,2.481c-0.058,2.119-0.656,3.278-1.609,3.81
		c-0.607,0.342-1.29,0.411-1.837,0.415c-1.146-0.006-1.984-0.461-2.324-0.77c-0.734-0.692-1.03-1.661-1.026-3.69
		c0-1.73-0.038-2.696-0.048-2.831c-0.024-0.121-0.064-0.233-0.497-0.338c-0.141-0.046-0.401-0.093-0.434-0.406
		c0.073-0.365,0.359-0.336,0.559-0.356c0.517,0,0.808,0.037,1.241,0.037c0.438,0,0.889-0.023,1.167-0.023
		c0.215,0.019,0.51-0.03,0.582,0.342c-0.041,0.312-0.287,0.369-0.531,0.432c-0.419,0.108-0.48,0.105-0.565,0.512
		c-0.042,0.247-0.051,0.966-0.051,1.962c0,0.406,0.005,0.862,0.005,1.367c0.005,1.334,0.277,1.761,0.619,2.159
		c0.264,0.304,1.029,0.599,1.588,0.593c0.734-0.01,1.777-0.321,2.047-1.522c0.142-0.62,0.262-1.616,0.262-2.976
		c0-0.775-0.035-1.401-0.048-1.536c-0.075-0.432,0.02-0.401-0.629-0.596c-0.193-0.063-0.375-0.133-0.419-0.418
		c0.021-0.275,0.285-0.332,0.488-0.332c0.316,0,0.648,0.037,1.02,0.037c0.488,0,0.734-0.023,1.087-0.023
		c0.179,0,0.477,0.022,0.506,0.342C54.89,94.087,54.709,94.152,54.503,94.241z M62.248,101.4c-0.442,0.288-1.163,0.465-1.752,0.467
		c-0.427-0.002-1.231-0.13-1.685-0.342c-0.214-0.175-0.328-0.324-0.376-0.533c-0.057-0.407-0.18-0.912-0.181-1.16
		c0.091-0.238,0.032-0.308,0.377-0.442c0.4,0.112,0.41,0.424,0.634,0.81c0.253,0.557,0.997,0.849,1.377,0.84
		c0.728-0.007,1.238-0.49,1.248-1.247c-0.007-0.418-0.166-0.873-1.412-1.68c-1.03-0.665-1.837-1.419-1.84-2.555
		c0-0.631,0.277-1.226,0.732-1.629c0.412-0.372,1.038-0.642,1.92-0.642c0.627,0,1.277,0.19,1.469,0.222l-0.036,0.206l0.065-0.199
		c0.262,0.165,0.239,0.254,0.29,0.406c0.024,0.232,0.118,0.894,0.118,0.998c0,0.097,0.003,0.182-0.013,0.275
		c0,0.073-0.102,0.264-0.277,0.259c-0.208-0.01-0.409-0.146-0.487-0.398c-0.115-0.371-0.453-0.736-0.522-0.768
		c-0.18-0.144-0.42-0.234-0.724-0.234c-0.696,0.006-1.167,0.498-1.178,1.2c-0.005,0.718,0.499,1.041,1.584,1.764
		c0.927,0.622,1.754,1.311,1.754,2.512C63.332,100.205,62.956,100.94,62.248,101.4z M73.637,100.144
		c-0.039,0.189-0.32,1.153-0.473,1.388c-0.087,0.083-0.136,0.192-0.372,0.23c-0.152,0-1.952-0.1-3.911-0.1
		c-0.622,0-0.879,0.058-1.363,0.061c-0.197,0-0.538-0.008-0.568-0.364c0.072-0.346,0.308-0.323,0.497-0.398
		c0.616-0.186,0.636-0.104,0.717-0.689c0.037-0.497,0.097-1.918,0.097-3.405c0-0.718,0.004-1.142,0.004-1.426
		c0-0.283-0.004-0.429-0.016-0.598c-0.069-0.505-0.01-0.445-0.514-0.599c-0.231-0.061-0.477-0.108-0.509-0.408
		c0.058-0.359,0.352-0.363,0.544-0.381c0.583,0,1.047,0.05,1.845,0.05h1.769c0.383,0,0.921-0.015,0.987-0.002
		c0.015-0.013,0.046-0.03,0.126-0.042c0.281,0.067,0.244,0.18,0.311,0.35c0,0.546,0.024,0.889,0.024,1.143
		c-0.007,0.206-0.064,0.484-0.388,0.521c-0.356-0.057-0.353-0.333-0.397-0.446c-0.173-0.59-0.285-0.583-0.636-0.664
		c-0.203-0.034-0.73-0.057-1.195-0.057c-0.148,0-0.289,0.002-0.418,0.008c-0.012,0.022-0.03,0.064-0.039,0.149
		c-0.013,0.211-0.044,1.629-0.044,2.331c0,0.133,0.002,0.254,0.004,0.308h0.665c1.18-0.054,0.953,0.041,1.202-0.473
		c0.082-0.189,0.175-0.371,0.41-0.386c0.349,0.081,0.283,0.319,0.309,0.427c0,0.032-0.005,0.038-0.005,0.064
		c-0.023,0.336-0.034,0.567-0.034,0.853c0,0.312,0.024,0.471,0.039,0.722v0.06c-0.015,0.205-0.026,0.458-0.341,0.508
		c-0.306-0.047-0.342-0.257-0.407-0.411c-0.22-0.538,0.003-0.383-0.765-0.479c-0.344-0.022-0.772-0.024-1.09-0.024
		c-0.017,0.196-0.027,0.694-0.027,1.135c0,0.249,0.004,0.48,0.004,0.655c-0.004,0.323,0.052,0.787,0.108,0.931
		c0.025,0.086,0.077,0.126,0.069,0.126c0.193,0.032,0.593,0.078,1.058,0.078c0.128,0.003,0.885-0.018,1.092-0.077
		c0.332-0.087,0.585-0.252,0.863-0.782c0.139-0.258,0.209-0.427,0.463-0.452c0.35,0.087,0.285,0.315,0.311,0.448
		C73.644,100.073,73.642,100.111,73.637,100.144z M90.109,101.723c-0.416,0-1-0.059-1.515-0.059c-0.376,0-0.542,0.023-0.853,0.023
		c-0.313,0-0.563-0.083-0.585-0.353c0.012-0.233,0.207-0.354,0.456-0.397c0.385-0.112,0.321-0.138,0.339-0.206
		c0-0.04-0.01-0.098-0.02-0.166c-0.086-0.45-0.374-1.221-0.653-1.991c-0.035-0.008-0.11-0.021-0.227-0.018
		c-0.615-0.003-1.608,0.013-1.922,0.042c-0.306,0.754-0.608,1.793-0.6,2.004c0.018,0.068-0.064,0.13,0.438,0.316
		c0.21,0.075,0.43,0.11,0.477,0.417c-0.067,0.386-0.39,0.351-0.544,0.362c-0.231,0-0.518-0.033-0.951-0.033
		c-0.437,0-1.05,0.056-1.256,0.059c-0.206,0-0.481-0.072-0.484-0.326c0.018-0.234,0.18-0.361,0.407-0.444
		c0.616-0.229,0.611-0.14,0.984-0.909c0.268-0.596,1.645-4.241,2.183-5.554c0.037-0.074,0.049-0.156,0.047-0.161
		c-0.003-0.026,0.007-0.146,0.067-0.222c0.092-0.123,0.261-0.435,0.373-0.603c0.085-0.089,0.156-0.202,0.35-0.216
		c0.254,0.038,0.287,0.201,0.389,0.455l-0.197,0.069l0.2-0.061c0.093,0.312,0.297,0.853,0.528,1.48
		c0.627,1.753,1.53,4.142,1.731,4.626c0.424,0.984,0.468,0.94,1.003,1.096c0.185,0.066,0.402,0.122,0.434,0.406
		C90.687,101.639,90.41,101.723,90.109,101.723z M102.524,94.241c-0.513,0.161-0.532,0.092-0.607,0.689
		c-0.024,0.427-0.134,2.801-0.134,4.863c0,0.49,0.085,1.381,0.085,1.601c-0.004,0.165-0.068,0.435-0.378,0.464
		c-0.338-0.035-0.555-0.299-0.704-0.464c-0.212-0.264-0.426-0.571-0.744-0.962c-1.057-1.258-2.949-3.393-4.079-4.736
		c-0.014,0.266-0.034,0.615-0.043,1.232c0,0.81-0.021,2.047-0.021,2.775c0,0.248,0,0.441,0.009,0.516
		c0.081,0.53,0.063,0.524,0.597,0.72c0.276,0.045,0.468,0.218,0.463,0.421c-0.055,0.37-0.382,0.356-0.594,0.364
		c-0.369,0-0.873-0.059-1.289-0.059c-0.254,0-0.563,0.023-0.782,0.023c-0.132-0.002-0.47,0.03-0.521-0.341
		c0.03-0.292,0.246-0.35,0.382-0.407c0.578-0.239,0.606-0.084,0.7-0.943c0.061-0.972,0.231-3.867,0.231-4.851
		c-0.004-0.353-0.036-0.435-0.039-0.443c-0.327-0.368-0.337-0.324-0.906-0.487c-0.132-0.05-0.371-0.074-0.415-0.392
		c0.047-0.34,0.341-0.353,0.604-0.356c0.277,0,0.861,0.037,1.47,0.037c0.215,0.019,0.3,0.132,0.41,0.23
		c0.185,0.217,0.487,0.585,0.957,1.197c0.487,0.62,2.791,3.138,3.765,4.202c0.009-0.186,0.014-0.448,0.014-0.758
		c0-0.61-0.01-1.426-0.01-2.363c0-0.4-0.029-0.818-0.061-1.195c-0.034-0.202,0.002-0.34-0.609-0.542
		c-0.264-0.077-0.471-0.222-0.473-0.468c0.114-0.394,0.375-0.276,0.521-0.318c0.317,0,0.653,0.015,1.035,0.015
		c0.415,0,0.799-0.046,1.134-0.053c0.183,0,0.483,0.076,0.483,0.348C102.969,94.015,102.796,94.168,102.524,94.241z M103.637,80.488
		c0,0-0.51,1.794-0.51,2.993H51.045c0.834-0.295,1.6-0.663,2.236-1.133c2.899-2.134,6.555-5.498,8.386-7.22
		c3.491-0.006,8.115-0.312,13.88-1.296c0.092-0.02,5.774-1.354,13.43-4.583c0-0.003,3.765-1.5,8.237-3.204
		c0.238,2.73,1.679,8.099,9.284,9.091c0,0,1.882,0.184,3.65,0.026c0,0,2.644-0.085,1.76,2.345c0,0-0.791,1.553-2.673,1.277
		C109.236,78.784,104.584,77.299,103.637,80.488z M114.861,93.799l-0.108-0.001l0.108,0.013c-0.037,0.299-0.256,0.354-0.434,0.425
		c-0.603,0.115-0.916,0.299-1.358,0.816c-0.419,0.488-1.259,1.449-1.827,2.231c0.088,0.19,1.531,2.334,1.772,2.675
		c0.5,0.645,0.557,0.781,1.33,0.991c0.241,0.072,0.424,0.183,0.446,0.431c-0.031,0.302-0.309,0.356-0.571,0.356
		c-0.456-0.002-0.951-0.075-1.682-0.075c-0.328,0-0.831,0.05-1,0.05c-0.255,0-0.495-0.108-0.513-0.365
		c-0.001-0.231,0.221-0.368,0.421-0.409c0.159-0.039,0.3-0.077,0.36-0.105c-0.275-0.479-1.229-1.963-1.513-2.354
		c-0.383,0.476-0.884,1.14-1.191,1.598c-0.244,0.361-0.322,0.581-0.319,0.653c-0.006,0.046,0.021,0.08,0.309,0.191
		c0.2,0.073,0.406,0.149,0.43,0.414c-0.047,0.342-0.343,0.356-0.509,0.362c-0.317,0-0.868-0.034-1.24-0.034
		c-0.48,0-0.95,0.058-1.255,0.061c-0.214,0-0.491-0.036-0.522-0.342c0.025-0.3,0.281-0.418,0.627-0.481
		c0.504-0.096,1.038-0.449,1.294-0.741c0.513-0.561,1.159-1.324,1.896-2.348h0.002c-0.144-0.295-1.322-2.153-1.899-2.939
		c-0.261-0.355-0.673-0.562-1.067-0.651c-0.246-0.058-0.469-0.152-0.493-0.422c0.007-0.254,0.271-0.358,0.561-0.358
		c0.25,0.007,1.047,0.065,1.455,0.065c0.461,0,0.675-0.026,1.036-0.026c0.149,0.017,0.438-0.011,0.495,0.344
		c0.012,0.21-0.197,0.362-0.428,0.406c-0.141,0.044-0.138,0.059-0.138,0.059c0,0.005,0.003,0.034,0.035,0.093
		c0.309,0.561,1.137,1.861,1.408,2.222c0.446-0.53,1.335-1.743,1.5-2.055c0.037-0.073,0.044-0.12,0.044-0.141
		c0-0.006-0.034-0.082-0.373-0.155c-0.263-0.056-0.45-0.174-0.467-0.405c0.038-0.325,0.326-0.366,0.558-0.368
		c0.373,0,0.758,0.026,1.074,0.026c0.277,0,0.973-0.037,1.263-0.037c0.175,0.032,0.391-0.018,0.481,0.321h0.003V93.799z
		 M121.329,101.737c-0.627,0-1.492-0.075-1.792-0.075c-0.349,0-0.461,0.023-0.917,0.023c-0.261,0-0.517-0.121-0.522-0.375
		c0.049-0.314,0.287-0.349,0.524-0.409c0.553-0.175,0.443-0.114,0.534-0.696c0.036-0.402,0.063-1.661,0.063-2.674
		c0-0.745-0.014-2.245-0.037-2.625c-0.091-0.587,0.088-0.494-0.541-0.663c-0.279-0.04-0.503-0.176-0.509-0.42
		c0.047-0.336,0.329-0.347,0.51-0.353c0.329,0,0.929,0.034,1.313,0.034c0.578,0,0.855-0.034,1.29-0.034
		c0.195,0,0.484,0.043,0.508,0.353c-0.031,0.301-0.278,0.36-0.48,0.41c-0.622,0.168-0.482,0.233-0.57,0.594
		c-0.054,0.363-0.069,1.151-0.069,3.508c0,0.656,0.014,1.405,0.036,1.781c0.085,0.661-0.026,0.645,0.704,0.843
		c0.24,0.04,0.468,0.142,0.488,0.414C121.779,101.74,121.509,101.706,121.329,101.737z M131.914,100.144
		c-0.041,0.189-0.322,1.151-0.475,1.39c-0.088,0.081-0.132,0.19-0.37,0.228c-0.151,0-1.952-0.1-3.914-0.1
		c-0.623,0-0.879,0.058-1.359,0.061c-0.197,0-0.541-0.015-0.568-0.364c0.068-0.346,0.304-0.323,0.493-0.398
		c0.619-0.186,0.636-0.104,0.721-0.689c0.037-0.497,0.093-1.918,0.093-3.405c0-0.718,0.005-1.142,0.005-1.426
		c0-0.283-0.005-0.429-0.015-0.598c-0.068-0.505-0.01-0.442-0.516-0.599c-0.227-0.061-0.475-0.108-0.504-0.408
		c0.056-0.357,0.346-0.363,0.545-0.381c0.578,0,1.045,0.05,1.84,0.05h1.772c0.38,0,0.916-0.015,0.986-0.002
		c0.013-0.013,0.044-0.03,0.124-0.042c0.28,0.067,0.244,0.18,0.315,0.35c0,0.546,0.019,0.889,0.019,1.143
		c-0.006,0.206-0.063,0.484-0.389,0.521c-0.353-0.057-0.349-0.333-0.395-0.446c-0.17-0.59-0.281-0.583-0.637-0.664
		c-0.197-0.034-0.729-0.057-1.194-0.057c-0.146,0-0.287,0.002-0.412,0.008c-0.015,0.022-0.032,0.064-0.041,0.149
		c-0.016,0.211-0.044,1.629-0.044,2.331c0,0.133,0.002,0.254,0.002,0.308h0.664c1.181-0.054,0.95,0.043,1.201-0.473
		c0.082-0.191,0.176-0.371,0.412-0.386c0.349,0.081,0.281,0.319,0.309,0.427c-0.004,0.035-0.004,0.038-0.004,0.064
		c-0.023,0.336-0.037,0.567-0.037,0.853c0,0.312,0.024,0.471,0.037,0.722v0.056c-0.013,0.208-0.02,0.459-0.34,0.512
		c-0.309-0.047-0.343-0.257-0.407-0.411c-0.221-0.538,0.003-0.383-0.765-0.479c-0.338-0.022-0.767-0.024-1.088-0.024
		c-0.021,0.196-0.029,0.694-0.025,1.135v0.655c-0.003,0.323,0.054,0.787,0.112,0.931c0.023,0.086,0.073,0.124,0.068,0.126
		c0.195,0.032,0.592,0.078,1.06,0.078c0.128,0.003,0.885-0.018,1.093-0.077c0.327-0.087,0.583-0.252,0.858-0.782
		c0.142-0.258,0.21-0.427,0.468-0.452c0.344,0.084,0.283,0.308,0.311,0.446C131.923,100.073,131.919,100.111,131.914,100.144z
		 M131.473,80.282c-0.039,0.151-0.382,1.398-0.387,2.537c0.015,0.184,0.015,0.417,0.054,0.663h-19.266
		c1.023-0.507,1.759-1.028,1.759-1.028s0.358-0.227,0.544-0.385c1.215-1.013,6.896-6.608,7.419-6.893c0,0,1.137-0.485,0.816-1.091
		c0,0-0.243-0.73-1.3-0.689c0,0-10.059-0.361-3.969-11.461c1.171,2.653,3.764,6.638,9.241,8.59
		c-0.028-0.019,4.765,2.028,9.017,3.029c0.04,0.009,0.529,0.096,1.107,0.363c0.329,0.14,0.657,0.337,0.918,0.56
		c-0.249,0.291-0.465,0.713-0.536,1.313c0,0.183,0.041,0.451,0.158,0.697c0.006,0.02,0.029,0.099,0.058,0.195
		C135.768,76.75,132.721,77.212,131.473,80.282z M142.985,93.756c-0.113,0.357-0.183,0.707-0.258,1.329
		c-0.035,0.202-0.141,0.385-0.412,0.416c-0.304-0.036-0.341-0.293-0.375-0.573c-0.124-0.57-0.003-0.438-0.778-0.534
		c-0.065-0.004-0.289-0.012-0.545-0.012c-0.366-0.002-0.857,0.008-1.03,0.024v2.911c0,1.39,0,2.54,0.047,2.959
		c0.109,0.53-0.031,0.458,0.708,0.675c0.19,0.076,0.415,0.082,0.486,0.423c-0.09,0.42-0.446,0.326-0.548,0.35
		c-0.124,0-0.848-0.061-1.373-0.061c-0.587,0-1.172,0.084-1.371,0.084c-0.259-0.018-0.51-0.029-0.568-0.35
		c0.034-0.276,0.214-0.354,0.39-0.414c0.79-0.235,0.648-0.166,0.741-1.1c0.022-0.707,0.083-3.166,0.083-4.089v-1.389
		c-0.321-0.026-1.218-0.051-1.379-0.051c-0.446,0.004-0.609,0.068-0.766,0.239c0.003,0.002-0.148,0.175-0.33,0.54
		c-0.082,0.248-0.287,0.381-0.409,0.368h-0.015c-0.366-0.104-0.29-0.334-0.328-0.486c0.01-0.317,0.231-0.912,0.228-1.585
		c0.04-0.248,0.144-0.362,0.393-0.407c0.324,0.093,0.215,0.197,0.336,0.251c0.021,0.032,0.219,0.182,0.288,0.17
		c0.289,0.036,1.259,0.073,2.792,0.073c0.623,0,2.248-0.011,2.747-0.023c0.418-0.025,0.582-0.091,0.724-0.19
		c0.075-0.038,0.141-0.096,0.273-0.099c0.234,0.021,0.284,0.216,0.284,0.341C143.022,93.617,143.009,93.681,142.985,93.756z
		 M154.075,94.203c-0.514,0.135-0.811,0.389-1.202,0.87c-0.549,0.689-1.175,1.746-1.589,2.346c-0.112,0.148-0.276,0.57-0.266,0.619
		c0,0.663,0.025,2.169,0.071,2.508c0.042,0.162,0.018,0.214,0.702,0.405c0.242,0.061,0.461,0.154,0.48,0.419
		c-0.052,0.346-0.348,0.337-0.57,0.343c-0.203,0-0.785-0.05-1.049-0.05c-0.714,0-1.479,0.073-1.681,0.075
		c-0.224-0.006-0.473-0.046-0.512-0.34c0.018-0.255,0.224-0.374,0.502-0.424c0.608-0.152,0.6-0.325,0.619-0.389
		c0.034-0.473,0.034-1.778,0.034-2.477c0,0-0.068-0.302-0.088-0.344c-0.19-0.406-0.942-1.633-1.514-2.5
		c-0.587-0.856-0.638-0.925-1.108-1.043c-0.258-0.063-0.477-0.16-0.505-0.438c0.059-0.333,0.329-0.327,0.536-0.342
		c0.207,0.007,0.816,0.065,1.374,0.065c0.319,0,0.423-0.026,0.913-0.026c0.21,0,0.466,0.087,0.475,0.344
		c-0.01,0.234-0.197,0.365-0.43,0.429c-0.067,0.016-0.114,0.033-0.142,0.045c0.017,0.037,0.047,0.114,0.103,0.209
		c0.129,0.243,0.909,1.547,1.449,2.431c0.389-0.587,1.166-1.864,1.436-2.305c0.074-0.132,0.098-0.219,0.098-0.246
		c0-0.007,0.003-0.058-0.319-0.134c-0.239-0.064-0.409-0.237-0.409-0.441c0.087-0.376,0.354-0.295,0.487-0.318
		c0.318,0,0.51,0.012,0.776,0.012c0.438,0,1.13-0.05,1.338-0.05c0.165,0.021,0.395-0.003,0.463,0.327
		C154.514,94.081,154.279,94.136,154.075,94.203z M159.925,98.87c0-0.356-1.102-1.458-1.463-1.458c0.36,0,1.463-1.1,1.463-1.457
		c0,0.358,1.1,1.457,1.459,1.457C161.025,97.412,159.925,98.514,159.925,98.87z"/>
	<path class="st0" d="M41.309,4.47l0.556,3.379c0.612,1.753,2.244,1.874,2.741,1.869c0.106,0,0.181-0.011,0.185-0.011h12.677
		c-0.042,0,0.034,0.011,0.154,0.011h0.052c0.552,0,2.1-0.173,2.674-1.762l0.589-3.512c0-0.016,0.047-0.27,0.047-0.631
		c0.043-0.732-0.366-2.382-2.149-2.51c-0.07-0.012-0.175-0.024-0.299-0.024c-0.561-0.031-1.63,0.326-2.323,1.724
		c-0.033,0.078-0.17,0.448-0.419,0.829c-0.249,0.397-0.601,0.68-0.758,0.677c-0.07,0.005-0.08,0.015-0.142,0.015
		c-0.154-0.072-0.414,0.134-0.644-0.948C54.178,3.575,53.913,0.26,51.2,0h-0.151c-2.72,0.26-2.993,3.575-3.059,3.57
		c-0.241,1.087-0.492,0.877-0.651,0.943c-0.071,0-0.071-0.005-0.076,0c-0.224,0.05-0.541-0.332-0.789-0.712
		c-0.231-0.366-0.418-0.725-0.418-0.72c-0.737-1.468-1.797-1.828-2.36-1.802c-0.11,0-0.202,0.009-0.275,0.024
		c-1.803,0.118-2.213,1.773-2.172,2.51C41.248,4.18,41.304,4.443,41.309,4.47z M43.551,2.635l0.138,0.002
		c0.132,0.027,0.561-0.022,1.124,0.997c0.049-0.059,0.497,1.869,2.224,2.226c0.013,0,0.13,0.015,0.3,0.015
		c0.588,0.073,1.813-0.482,1.993-2.09c0-0.005,0.645-2.454,1.74-2.454l0.115-0.001c1.078,0,1.717,2.455,1.719,2.458
		c0.178,1.594,1.397,2.166,1.989,2.094c0.202,0,0.339-0.03,0.375-0.037c1.655-0.34,2.104-2.271,2.191-2.294
		c0.524-0.943,0.911-0.912,1.076-0.918l0.076,0.001c0.888,0.08,0.942,0.579,1.009,1.178c0,0.242-0.03,0.391-0.024,0.391
		l-0.568,3.423c-0.19,0.619-1.029,0.717-1.407,0.732c-0.074,0-0.099-0.004-0.099-0.004H44.606c-0.381-0.01-1.212-0.109-1.419-0.829
		l-0.542-3.304c-0.007-0.036-0.04-0.185-0.04-0.408C42.672,3.22,42.657,2.715,43.551,2.635z"/>
	<circle class="st0" cx="41.54" cy="18.394" r="1.462"/>
</g>
</svg>
