<svg aria-hidden="true" style="position: absolute; width: 0; height: 0; overflow: hidden;" version="1.1" xmlns="http://www.w3.org/2000/svg" xmlns:xlink="http://www.w3.org/1999/xlink">
<defs>
<symbol id="icon-menu" viewBox="0 0 24 24">
<path d="M3 6h18v2.016h-18v-2.016zM3 12.984v-1.969h18v1.969h-18zM3 18v-2.016h18v2.016h-18z"></path>
</symbol>
<symbol id="icon-logo" viewBox="0 0 50 32">
<path d="M11.245 27.2c-0.127-0.105-0.339-0.174-0.481-0.174-0.125-0.002-0.33 0.073-0.434 0.18l-0.042-0.043 0.041 0.043c-0.137 0.135-0.25 0.377-0.25 0.77 0.001 0.491 0.367 1.045 0.873 1.046 0.268-0.001 0.38-0.113 0.416-0.15 0.122-0.111 0.274-0.376 0.274-0.771 0-0.36-0.156-0.709-0.396-0.901z"></path>
<path d="M24.549 28.040c0.125-0.002 0.306-0.001 0.42-0.006-0.051-0.151-0.151-0.435-0.207-0.587-0.067 0.178-0.169 0.457-0.213 0.593z"></path>
<path d="M47.974 25.66l-0.161-1.684h-7.686l1.478-1.338 0.035-0.035c0.406-0.52 0.533-1.033 0.533-1.415 0-0.082-0.006-0.152-0.015-0.212-0.006-0.054-0.011-0.121-0.011-0.192 0-0.294 0.057-0.681 0.053-0.681 0 0 0.056-0.304 0.058-0.657-0.002-0.034-0.002-0.046-0.002-0.046-0.023-0.479-0.472-0.555-0.639-0.551-0.134 0-0.232 0.022-0.245 0.024l-0.61 0.057c-0.031 0.003-0.050 0.003-0.069 0.003-0.18 0.036-0.285-0.281-0.287-0.281-0.008-0.032-0.014-0.070-0.014-0.107-0.004-0.268 0.193-0.741 0.3-0.989 0.074-0.197 0.088-0.395 0.088-0.559 0-0.181-0.021-0.328-0.030-0.379-0.002-0.005-0.003-0.015-0.004-0.027 0.021 0.004 0.036 0.009 0.037 0.008l0.5 0.101c0.404 0.058 0.779 0.084 1.138 0.084 2.93 0.024 4.852-1.891 4.925-4.914 0.001-0.058 0.001-0.116 0.001-0.168-0.018-3.366-3.259-4.161-3.276-4.164-0.773-0.144-1.511-0.202-2.206-0.202-2.471 0-4.443 0.715-4.859 0.824-0.359 0.073-0.584 0.377-0.566 0.621 0.006 0.23 0.105 0.364 0.116 0.387 0.33 0.416 0.777 0.454 0.983 0.454 0.071 0 0.119-0.003 0.125-0.006l0.72-0.060c0.585-0.046 1.22-0.060 1.8-0.060 1.085 0 1.966 0.051 1.967 0.051 2.289 0.134 2.348 1.747 2.38 2.222 0 0.073-0.004 0.109-0.004 0.11 0.001 0.085 0.004 0.14 0.004 0.192-0.011 1.178-0.527 1.707-1.11 2.023-0.583 0.309-1.248 0.337-1.413 0.334h-0.061c-0.044 0.004-0.076 0.007-0.104 0.007-0.49 0.010-1.288-0.406-1.915-0.844-0.633-0.435-1.116-0.87-1.119-0.87-2.785-2.64-7.655-2.926-7.678-2.936-0.198-0.011-0.391-0.017-0.586-0.017-4.853 0.008-9.313 3.095-9.335 3.103-0.65 0.481-1.267 0.569-1.657 0.569-0.256 0-0.389-0.037-0.389-0.033l-0.798-0.161c-0.368-0.063-0.44-0.344-0.457-0.742 0-0.31 0.082-0.582 0.076-0.584l0.701-2.803c0.212-0.799 0.275-1.465 0.275-1.973 0-0.737-0.131-1.146-0.14-1.17-0.7-1.873-2.908-2.486-2.929-2.502-0.662-0.208-1.314-0.27-1.861-0.27-0.858 0-1.46 0.154-1.476 0.156-1.559 0.346-4.129 1.727-4.141 1.729-0.018 0.018-0.48 0.233-0.498 0.802-0.001 0.129 0.029 0.275 0.097 0.422 0.036 0.039 0.182 0.353 0.494 0.524 0.004 0.008 0.122 0.114 0.144 0.175 0.159 0.24 0.954 1.489 1.96 1.566 0.072 0 0.136-0.011 0.19-0.022 0.006-0.002 0.258-0.039 0.532-0.184 0.018-0.014 0.258-0.153 0.491-0.15 0.108 0.001 0.2 0.023 0.293 0.092 0.001 0.001 0.107 0.078 0.213 0.205 0.112 0.129 0.198 0.294 0.195 0.409 0 0.044-0.010 0.088-0.036 0.146-0.007 0.015-0.195 0.451-0.433 0.893-0.25 0.482-1.373 2.991-1.387 4.449 0 0.069 0.001 0.145 0.011 0.221 0.001 0.005 0.001 0.012 0.002 0.018l-3.88-0.015c0 0-2.096-0.228-2.202 1.031 0 0-0.244 1.555 1.363 1.519 0 0 0.384 0.026 0.436-0.306 0 0 0.027-0.315-0.244-0.341-0.349-0.035-0.341-0.759 0.183-0.794 0 0 0.428-0.061 0.759 0.2 0.332 0.263 3.441 2.585 3.441 2.585s0.157 0.14 0.384 0.068c0.153-0.046 0.323-0.184 0.571-0.208 0.498 1.073 1.327 2.087 2.72 2.649 0.092 0.178 0.149 0.393 0.1 0.63-0.137 0.654-0.107 1.549-1.247 1.412 0 0-1.124-0.485-1.671 0.472 0 0-0.11 0.225-0.158 0.417h-9.53l-0.163 1.722c-0.121 0.98-0.714 1.814-1.546 2.266 0.856 0.464 1.458 1.335 1.555 2.352h0l0.16 1.685h46.104l0.164-1.723h0.001c0.121-0.98 0.713-1.814 1.545-2.266-0.856-0.464-1.458-1.334-1.554-2.352zM3.385 28.395c0-0.102-0.317-0.419-0.419-0.419 0.103 0 0.419-0.316 0.419-0.418 0 0.103 0.316 0.418 0.419 0.418-0.103 0-0.419 0.317-0.419 0.419zM8.202 28.846c0.019 0.12-0.009 0.079 0.157 0.14 0.054 0.024 0.111 0.044 0.119 0.124-0.011 0.094-0.097 0.097-0.156 0.097-0.061 0-0.183-0.010-0.287-0.010-0.071 0-0.33 0.021-0.405 0.022-0.044 0-0.136-0.001-0.146-0.098 0.009-0.089 0.079-0.107 0.119-0.121 0.175-0.066 0.147-0.031 0.171-0.283 0.007-0.146 0.015-0.383 0.015-0.553v-0.013c-0.397-0.001-0.868-0.007-1.109-0.007-0.058 0-0.107 0-0.135 0.001-0.001 0.001-0.001 0.003-0.001 0.006-0.002 0.025-0.004 0.094-0.004 0.175 0 0.165 0.004 0.383 0.004 0.451 0.012 0.156 0.014 0.164 0.142 0.212 0.070 0.017 0.139 0.046 0.148 0.127v0.003c-0.007 0.065-0.057 0.076-0.080 0.083-0.027 0.007-0.055 0.009-0.081 0.009-0.031 0-0.237-0.014-0.359-0.014-0.075 0-0.221 0.014-0.342 0.014-0.074-0.003-0.148-0.003-0.164-0.095 0.009-0.091 0.082-0.109 0.124-0.124 0.175-0.057 0.149-0.037 0.173-0.161 0.009-0.14 0.031-0.53 0.031-1.091 0-0.043 0.003-0.198 0.003-0.342 0-0.071-0.001-0.139-0.003-0.188-0.018-0.114 0.007-0.102-0.124-0.143-0.077-0.011-0.144-0.050-0.146-0.123 0.025-0.107 0.102-0.090 0.16-0.099 0.1 0 0.229 0.007 0.315 0.007 0.144 0 0.246-0.007 0.329-0.007 0.076 0.007 0.148-0.002 0.171 0.099-0.002 0.082-0.080 0.115-0.15 0.123-0.146 0.043-0.11 0.024-0.134 0.176-0.008 0.079-0.012 0.36-0.012 0.517 0 0.051 0 0.091 0.001 0.103v0.012c0.209-0.001 0.659-0.009 1.238-0.009 0.002-0.009 0.003-0.020 0.005-0.034 0-0.011 0.001-0.084 0.001-0.172 0-0.155-0.002-0.371-0.007-0.452-0.023-0.119 0.007-0.089-0.148-0.144-0.049-0.018-0.121-0.035-0.13-0.123 0.018-0.099 0.096-0.095 0.167-0.099 0.048 0 0.268 0.007 0.353 0.007 0.116 0 0.271-0.011 0.315-0.011 0.057 0.004 0.139 0 0.156 0.102-0.014 0.082-0.069 0.093-0.146 0.117-0.129 0.041-0.119 0.051-0.134 0.144-0.017 0.171-0.028 0.549-0.028 1.137-0.001 0.148 0.013 0.453 0.013 0.506zM11.583 29.047c-0.233 0.163-0.528 0.211-0.715 0.212-0.37-0.001-0.72-0.159-0.943-0.414-0.193-0.216-0.302-0.511-0.302-0.822-0.001-0.443 0.198-0.758 0.472-0.977 0.184-0.149 0.488-0.254 0.747-0.254 0.693 0.001 1.258 0.511 1.259 1.204 0 0.504-0.249 0.863-0.517 1.051zM17.927 20.738c0.285-0.18 0.102-0.798 0.099-0.804l-0.022-0.269c0.019-0.168 0.083-0.292 0.194-0.372 0.107-0.076 0.236-0.092 0.325-0.092 0.069 0 0.12 0.009 0.136 0.012 0.651 0.084 1.174 0.101 1.498 0.101 0.2 0 0.327-0.007 0.34-0.009 3.009-0.298 6.327-1.897 6.36-1.913 1.499-0.634 2.868-1.016 4.066-1.135 0.697-0.071 1.036-0.080 1.275-0.080 0.138 0 0.264 0.003 0.396 0.007l0.065 0.002c0.082 0.003 0.171 0.005 0.268 0.006 0.592 0.008 0.671 0.644 0.672 0.651l0.001 0.019-0.020-0.001c-0.161 0-0.791 0.031-2.136 0.42-1.598 0.464-5.993 2.208-6.036 2.225-2.134 0.9-3.774 1.294-3.789 1.297-1.38 0.238-2.679 0.36-3.861 0.366-0.022-0.147-0.040-0.3 0.168-0.431zM15.675 4.684c0.057-0.073 0.134-0.109 0.217-0.109 0.15 0.002 0.328 0.1 0.532 0.254 0.001 0.002 0.587 0.389 0.59 0.856 0 0-0.001 0 0 0.006v0.024c0 0.112-0.026 0.635-0.509 0.947-0.002 0.003-0.168 0.124-0.344 0.124h-0.005c-0.073 0-0.148-0.025-0.207-0.083-0.065-0.060-0.090-0.123-0.090-0.184 0.001-0.137 0.129-0.247 0.151-0.29 0.023-0.045 0.147-0.271 0.147-0.529-0.001-0.174-0.057-0.364-0.237-0.525-0.001-0.002-0.284-0.182-0.287-0.378 0-0.038 0.011-0.079 0.041-0.114zM11.929 4.58c0.388 0 0.703 0.315 0.703 0.703s-0.316 0.704-0.703 0.704c-0.388 0-0.703-0.316-0.703-0.704s0.314-0.703 0.703-0.703zM13.923 20.556c-2.74-1.431-2.829-4.903-2.934-5.978-0.121-1.258 1.101-4.052 1.346-4.505 0.243-0.454 0.436-0.901 0.436-0.901 0.287-0.557-0.454-1.108-0.454-1.108-0.472-0.349-1.083 0.036-1.083 0.036-0.227 0.122-0.454 0.156-0.454 0.156-0.734 0.185-1.764-1.221-1.844-1.387-0.078-0.166-0.27-0.305-0.27-0.305-0.184-0.087-0.367-0.393-0.367-0.393-0.009-0.022-0.012-0.042-0.020-0.063 0.256 0.122 0.544 0.018 0.544 0.018 0.462-0.114 0.682 0.279 0.682 0.279 0.209 0.411 0.62 0.55 0.62 0.55 0.637 0.236 1.222-0.016 1.222-0.016 0.568-0.237 1.144-0.279 1.144-0.279 1.136 0.034 2.21 0.758 2.21 0.758 0.943 0.551 0.434 1.533 0.434 1.533l-1.398 3.749c-1.303 3.236 0.723 6.24 0.723 6.24 0.371 0.746 0.371 0.931 0.185 1.445-0.107 0.292-0.448 0.256-0.722 0.171zM15.653 27.065c-0.137 0.047-0.165 0.055-0.18 0.262-0.004 0.151-0.024 0.534-0.031 0.713-0.017 0.609-0.188 0.941-0.462 1.094-0.174 0.098-0.37 0.118-0.528 0.119-0.329-0.002-0.57-0.132-0.667-0.221-0.211-0.199-0.296-0.477-0.295-1.060 0-0.497-0.011-0.774-0.014-0.813-0.007-0.035-0.018-0.067-0.143-0.097-0.040-0.013-0.115-0.027-0.125-0.117 0.021-0.105 0.103-0.096 0.161-0.102 0.148 0 0.232 0.011 0.356 0.011 0.126 0 0.255-0.007 0.335-0.007 0.062 0.005 0.146-0.009 0.167 0.098-0.012 0.090-0.082 0.106-0.152 0.124-0.12 0.031-0.138 0.030-0.162 0.147-0.012 0.071-0.015 0.277-0.015 0.563 0 0.117 0.001 0.248 0.001 0.393 0.001 0.383 0.080 0.506 0.178 0.62 0.076 0.087 0.296 0.172 0.456 0.17 0.211-0.003 0.51-0.092 0.588-0.437 0.041-0.178 0.075-0.464 0.075-0.855 0-0.223-0.010-0.402-0.014-0.441-0.022-0.124 0.006-0.115-0.181-0.171-0.055-0.018-0.108-0.038-0.12-0.12 0.006-0.079 0.082-0.095 0.14-0.095 0.091 0 0.186 0.011 0.293 0.011 0.14 0 0.211-0.007 0.312-0.007 0.051 0 0.137 0.006 0.145 0.098-0.008 0.075-0.060 0.094-0.119 0.119zM17.877 29.121c-0.127 0.083-0.334 0.134-0.503 0.134-0.123-0.001-0.354-0.037-0.484-0.098-0.061-0.050-0.094-0.093-0.108-0.153-0.016-0.117-0.052-0.262-0.052-0.333 0.026-0.068 0.009-0.088 0.108-0.127 0.115 0.032 0.118 0.122 0.182 0.233 0.073 0.16 0.286 0.244 0.395 0.241 0.209-0.002 0.356-0.141 0.358-0.358-0.002-0.12-0.048-0.251-0.406-0.483-0.296-0.191-0.528-0.408-0.528-0.734 0-0.181 0.080-0.352 0.21-0.468 0.118-0.107 0.298-0.184 0.551-0.184 0.18 0 0.367 0.055 0.422 0.064l-0.010 0.059 0.019-0.057c0.075 0.047 0.069 0.073 0.083 0.117 0.007 0.067 0.034 0.257 0.034 0.287 0 0.028 0.001 0.052-0.004 0.079 0 0.021-0.029 0.076-0.080 0.074-0.060-0.003-0.117-0.042-0.14-0.114-0.033-0.107-0.13-0.211-0.15-0.221-0.052-0.041-0.121-0.067-0.208-0.067-0.2 0.002-0.335 0.143-0.338 0.345-0.001 0.206 0.143 0.299 0.455 0.507 0.266 0.179 0.504 0.377 0.504 0.721-0 0.194-0.108 0.405-0.312 0.537zM21.148 28.761c-0.011 0.054-0.092 0.331-0.136 0.399-0.025 0.024-0.039 0.055-0.107 0.066-0.044 0-0.561-0.029-1.123-0.029-0.179 0-0.252 0.017-0.391 0.018-0.057 0-0.154-0.002-0.163-0.105 0.021-0.099 0.088-0.093 0.143-0.114 0.177-0.053 0.183-0.030 0.206-0.198 0.011-0.143 0.028-0.551 0.028-0.978 0-0.206 0.001-0.328 0.001-0.41s-0.001-0.123-0.005-0.172c-0.020-0.145-0.003-0.128-0.148-0.172-0.066-0.018-0.137-0.031-0.146-0.117 0.017-0.103 0.101-0.104 0.156-0.109 0.167 0 0.301 0.014 0.53 0.014h0.508c0.11 0 0.265-0.004 0.283-0.001 0.004-0.004 0.013-0.009 0.036-0.012 0.081 0.019 0.070 0.052 0.089 0.101 0 0.157 0.007 0.255 0.007 0.328-0.002 0.059-0.018 0.139-0.111 0.15-0.102-0.016-0.101-0.096-0.114-0.128-0.050-0.169-0.082-0.167-0.183-0.191-0.058-0.010-0.21-0.016-0.343-0.016-0.043 0-0.083 0.001-0.12 0.002-0.003 0.006-0.009 0.018-0.011 0.043-0.004 0.061-0.013 0.468-0.013 0.669 0 0.038 0.001 0.073 0.001 0.088h0.191c0.339-0.015 0.274 0.012 0.345-0.136 0.024-0.054 0.050-0.107 0.118-0.111 0.1 0.023 0.081 0.092 0.089 0.123 0 0.009-0.001 0.011-0.001 0.018-0.007 0.096-0.010 0.163-0.010 0.245 0 0.090 0.007 0.135 0.011 0.207v0.017c-0.004 0.059-0.007 0.132-0.098 0.146-0.088-0.014-0.098-0.074-0.117-0.118-0.063-0.154 0.001-0.11-0.22-0.138-0.099-0.006-0.222-0.007-0.313-0.007-0.005 0.056-0.008 0.199-0.008 0.326 0 0.072 0.001 0.138 0.001 0.188-0.001 0.093 0.015 0.226 0.031 0.267 0.007 0.025 0.022 0.036 0.020 0.036 0.055 0.009 0.17 0.022 0.304 0.022 0.037 0.001 0.254-0.005 0.314-0.022 0.095-0.025 0.168-0.072 0.248-0.225 0.040-0.074 0.060-0.123 0.133-0.13 0.101 0.025 0.082 0.090 0.089 0.129 0 0.013-0 0.024-0.002 0.034zM25.879 29.214c-0.119 0-0.287-0.017-0.435-0.017-0.108 0-0.156 0.007-0.245 0.007s-0.162-0.024-0.168-0.101c0.003-0.067 0.059-0.102 0.131-0.114 0.111-0.032 0.092-0.040 0.097-0.059 0-0.012-0.003-0.028-0.006-0.048-0.025-0.129-0.107-0.351-0.188-0.572-0.010-0.002-0.032-0.006-0.065-0.005-0.177-0.001-0.462 0.004-0.552 0.012-0.088 0.217-0.175 0.515-0.172 0.576 0.005 0.020-0.018 0.037 0.126 0.091 0.060 0.022 0.123 0.032 0.137 0.12-0.019 0.111-0.112 0.101-0.156 0.104-0.066 0-0.149-0.009-0.273-0.009-0.125 0-0.302 0.016-0.361 0.017s-0.138-0.021-0.139-0.094c0.005-0.067 0.052-0.104 0.117-0.128 0.177-0.066 0.175-0.040 0.283-0.261 0.077-0.171 0.472-1.218 0.627-1.595 0.011-0.021 0.014-0.045 0.014-0.046-0.001-0.007 0.002-0.042 0.019-0.064 0.026-0.035 0.075-0.125 0.107-0.173 0.024-0.026 0.045-0.058 0.101-0.062 0.073 0.011 0.082 0.058 0.112 0.131l-0.057 0.020 0.057-0.018c0.027 0.090 0.085 0.245 0.152 0.425 0.18 0.503 0.439 1.19 0.497 1.329 0.122 0.283 0.134 0.27 0.288 0.315 0.053 0.019 0.115 0.035 0.125 0.117-0.006 0.080-0.086 0.105-0.172 0.105zM29.444 27.065c-0.147 0.046-0.153 0.026-0.174 0.198-0.007 0.123-0.038 0.804-0.038 1.397 0 0.141 0.024 0.397 0.024 0.46-0.001 0.047-0.020 0.125-0.109 0.133-0.097-0.010-0.159-0.086-0.202-0.133-0.061-0.076-0.122-0.164-0.214-0.276-0.304-0.361-0.847-0.974-1.171-1.36-0.004 0.076-0.010 0.177-0.012 0.354 0 0.233-0.006 0.588-0.006 0.797 0 0.071 0 0.127 0.003 0.148 0.023 0.152 0.018 0.151 0.171 0.207 0.079 0.013 0.134 0.063 0.133 0.121-0.016 0.106-0.11 0.102-0.171 0.105-0.106 0-0.251-0.017-0.37-0.017-0.073 0-0.162 0.007-0.225 0.007-0.038-0.001-0.135 0.009-0.15-0.098 0.009-0.084 0.071-0.101 0.11-0.117 0.166-0.069 0.174-0.024 0.201-0.271 0.018-0.279 0.066-1.111 0.066-1.393-0.001-0.101-0.010-0.125-0.011-0.127-0.094-0.106-0.097-0.093-0.26-0.14-0.038-0.014-0.107-0.021-0.119-0.113 0.014-0.098 0.098-0.101 0.173-0.102 0.080 0 0.247 0.011 0.422 0.011 0.062 0.005 0.086 0.038 0.118 0.066 0.053 0.062 0.14 0.168 0.275 0.344 0.14 0.178 0.802 0.901 1.081 1.207 0.003-0.053 0.004-0.129 0.004-0.218 0-0.175-0.003-0.41-0.003-0.679 0-0.115-0.008-0.235-0.018-0.343-0.010-0.058 0.001-0.098-0.175-0.156-0.076-0.022-0.135-0.064-0.136-0.134 0.033-0.113 0.108-0.079 0.15-0.091 0.091 0 0.188 0.004 0.297 0.004 0.119 0 0.229-0.013 0.326-0.015 0.053 0 0.139 0.022 0.139 0.1-0.002 0.062-0.051 0.106-0.13 0.127zM29.764 23.116c0 0-0.146 0.515-0.146 0.86h-14.958c0.24-0.085 0.46-0.19 0.642-0.325 0.833-0.613 1.883-1.579 2.408-2.074 1.003-0.002 2.331-0.090 3.986-0.372 0.026-0.006 1.658-0.389 3.857-1.316 0-0.001 1.081-0.431 2.366-0.92 0.068 0.784 0.482 2.326 2.666 2.611 0 0 0.541 0.053 1.048 0.007 0 0 0.759-0.024 0.505 0.673 0 0-0.227 0.446-0.768 0.367 0 0-1.336-0.426-1.608 0.489zM32.987 26.939l-0.031-0 0.031 0.004c-0.011 0.086-0.074 0.102-0.125 0.122-0.173 0.033-0.263 0.086-0.39 0.234-0.12 0.14-0.362 0.416-0.525 0.641 0.025 0.055 0.44 0.67 0.509 0.768 0.144 0.185 0.16 0.224 0.382 0.285 0.069 0.021 0.122 0.053 0.128 0.124-0.009 0.087-0.089 0.102-0.164 0.102-0.131-0.001-0.273-0.022-0.483-0.022-0.094 0-0.239 0.014-0.287 0.014-0.073 0-0.142-0.031-0.147-0.105-0-0.066 0.063-0.106 0.121-0.117 0.046-0.011 0.086-0.022 0.103-0.030-0.079-0.138-0.353-0.564-0.435-0.676-0.11 0.137-0.254 0.327-0.342 0.459-0.070 0.104-0.092 0.167-0.092 0.188-0.002 0.013 0.006 0.023 0.089 0.055 0.057 0.021 0.117 0.043 0.123 0.119-0.014 0.098-0.099 0.102-0.146 0.104-0.091 0-0.249-0.010-0.356-0.010-0.138 0-0.273 0.017-0.36 0.018-0.061 0-0.141-0.010-0.15-0.098 0.007-0.086 0.081-0.12 0.18-0.138 0.145-0.028 0.298-0.129 0.372-0.213 0.147-0.161 0.333-0.38 0.545-0.674h0.001c-0.041-0.085-0.38-0.618-0.545-0.844-0.075-0.102-0.193-0.161-0.306-0.187-0.071-0.017-0.135-0.044-0.142-0.121 0.002-0.073 0.078-0.103 0.161-0.103 0.072 0.002 0.301 0.019 0.418 0.019 0.132 0 0.194-0.007 0.298-0.007 0.043 0.005 0.126-0.003 0.142 0.099 0.003 0.060-0.057 0.104-0.123 0.117-0.041 0.013-0.040 0.017-0.040 0.017 0 0.001 0.001 0.010 0.010 0.027 0.089 0.161 0.327 0.534 0.404 0.638 0.128-0.152 0.383-0.501 0.431-0.59 0.011-0.021 0.013-0.034 0.013-0.041 0-0.002-0.010-0.024-0.107-0.044-0.076-0.016-0.129-0.050-0.134-0.116 0.011-0.093 0.094-0.105 0.16-0.106 0.107 0 0.218 0.007 0.308 0.007 0.080 0 0.279-0.011 0.363-0.011 0.050 0.009 0.112-0.005 0.138 0.092h0.001v0.003zM34.845 29.218c-0.18 0-0.428-0.022-0.515-0.022-0.1 0-0.132 0.007-0.263 0.007-0.075 0-0.148-0.035-0.15-0.108 0.014-0.090 0.082-0.1 0.151-0.117 0.159-0.050 0.127-0.033 0.153-0.2 0.010-0.115 0.018-0.477 0.018-0.768 0-0.214-0.004-0.645-0.011-0.754-0.026-0.169 0.025-0.142-0.155-0.19-0.080-0.012-0.144-0.051-0.146-0.121 0.014-0.096 0.094-0.1 0.146-0.101 0.094 0 0.267 0.010 0.377 0.010 0.166 0 0.246-0.010 0.37-0.010 0.056 0 0.139 0.012 0.146 0.101-0.009 0.086-0.080 0.103-0.138 0.118-0.179 0.048-0.138 0.067-0.164 0.171-0.016 0.104-0.020 0.331-0.020 1.007 0 0.188 0.004 0.404 0.010 0.512 0.024 0.19-0.007 0.185 0.202 0.242 0.069 0.012 0.134 0.041 0.14 0.119-0.024 0.105-0.101 0.096-0.153 0.105zM37.885 28.761c-0.012 0.054-0.092 0.331-0.136 0.399-0.025 0.023-0.038 0.055-0.106 0.065-0.043 0-0.561-0.029-1.124-0.029-0.179 0-0.252 0.017-0.39 0.018-0.057 0-0.155-0.004-0.163-0.105 0.020-0.099 0.087-0.093 0.142-0.114 0.178-0.053 0.183-0.030 0.207-0.198 0.011-0.143 0.027-0.551 0.027-0.978 0-0.206 0.001-0.328 0.001-0.41s-0.001-0.123-0.004-0.172c-0.020-0.145-0.003-0.127-0.148-0.172-0.065-0.018-0.136-0.031-0.145-0.117 0.016-0.103 0.099-0.104 0.157-0.109 0.166 0 0.3 0.014 0.528 0.014h0.509c0.109 0 0.263-0.004 0.283-0.001 0.004-0.004 0.013-0.009 0.036-0.012 0.080 0.019 0.070 0.052 0.090 0.101 0 0.157 0.005 0.255 0.005 0.328-0.002 0.059-0.018 0.139-0.112 0.15-0.101-0.016-0.1-0.096-0.113-0.128-0.049-0.169-0.081-0.167-0.183-0.191-0.057-0.010-0.209-0.016-0.343-0.016-0.042 0-0.082 0.001-0.118 0.002-0.004 0.006-0.009 0.018-0.012 0.043-0.005 0.061-0.013 0.468-0.013 0.669 0 0.038 0.001 0.073 0.001 0.088h0.191c0.339-0.015 0.273 0.012 0.345-0.136 0.024-0.055 0.051-0.107 0.118-0.111 0.1 0.023 0.081 0.092 0.089 0.123-0.001 0.010-0.001 0.011-0.001 0.018-0.007 0.096-0.011 0.163-0.011 0.245 0 0.090 0.007 0.135 0.011 0.207v0.016c-0.004 0.060-0.006 0.132-0.098 0.147-0.089-0.014-0.099-0.074-0.117-0.118-0.063-0.154 0.001-0.11-0.22-0.138-0.097-0.006-0.22-0.007-0.312-0.007-0.006 0.056-0.008 0.199-0.007 0.326v0.188c-0.001 0.093 0.016 0.226 0.032 0.267 0.007 0.025 0.021 0.036 0.020 0.036 0.056 0.009 0.17 0.022 0.304 0.022 0.037 0.001 0.254-0.005 0.314-0.022 0.094-0.025 0.167-0.072 0.246-0.225 0.041-0.074 0.060-0.123 0.134-0.13 0.099 0.024 0.081 0.088 0.089 0.128 0 0.014-0.001 0.025-0.003 0.034zM37.758 23.056c-0.011 0.043-0.11 0.401-0.111 0.729 0.004 0.053 0.004 0.12 0.016 0.19h-5.533c0.294-0.146 0.505-0.295 0.505-0.295s0.103-0.065 0.156-0.111c0.349-0.291 1.98-1.898 2.131-1.98 0 0 0.327-0.139 0.234-0.313 0 0-0.070-0.21-0.373-0.198 0 0-2.889-0.104-1.14-3.292 0.336 0.762 1.081 1.906 2.654 2.467-0.008-0.005 1.368 0.582 2.59 0.87 0.011 0.003 0.152 0.028 0.318 0.104 0.094 0.040 0.189 0.097 0.264 0.161-0.072 0.084-0.134 0.205-0.154 0.377 0 0.053 0.012 0.13 0.045 0.2 0.002 0.006 0.008 0.028 0.017 0.056-0.384 0.020-1.259 0.152-1.618 1.034zM41.064 26.926c-0.032 0.103-0.053 0.203-0.074 0.382-0.010 0.058-0.041 0.111-0.118 0.119-0.087-0.010-0.098-0.084-0.108-0.165-0.036-0.164-0.001-0.126-0.223-0.153-0.019-0.001-0.083-0.003-0.157-0.003-0.105-0.001-0.246 0.002-0.296 0.007v0.836c0 0.399 0 0.729 0.014 0.85 0.031 0.152-0.009 0.132 0.203 0.194 0.055 0.022 0.119 0.024 0.14 0.121-0.026 0.121-0.128 0.094-0.157 0.101-0.036 0-0.244-0.018-0.394-0.018-0.169 0-0.337 0.024-0.394 0.024-0.074-0.005-0.146-0.008-0.163-0.101 0.010-0.079 0.061-0.102 0.112-0.119 0.227-0.067 0.186-0.048 0.213-0.316 0.006-0.203 0.024-0.909 0.024-1.174v-0.399c-0.092-0.007-0.35-0.015-0.396-0.015-0.128 0.001-0.175 0.020-0.22 0.069 0.001 0.001-0.042 0.050-0.095 0.155-0.024 0.071-0.082 0.109-0.117 0.106h-0.004c-0.105-0.030-0.083-0.096-0.094-0.14 0.003-0.091 0.066-0.262 0.065-0.455 0.011-0.071 0.041-0.104 0.113-0.117 0.093 0.027 0.062 0.057 0.096 0.072 0.006 0.009 0.063 0.052 0.083 0.049 0.083 0.010 0.362 0.021 0.802 0.021 0.179 0 0.646-0.003 0.789-0.007 0.12-0.007 0.167-0.026 0.208-0.055 0.022-0.011 0.041-0.028 0.078-0.028 0.067 0.006 0.082 0.062 0.082 0.098 0.001 0.020-0.003 0.039-0.010 0.060zM44.249 27.055c-0.148 0.039-0.233 0.112-0.345 0.25-0.158 0.198-0.337 0.501-0.456 0.674-0.032 0.043-0.079 0.164-0.076 0.178 0 0.19 0.007 0.623 0.020 0.72 0.012 0.047 0.005 0.061 0.202 0.116 0.069 0.018 0.132 0.044 0.138 0.12-0.015 0.099-0.1 0.097-0.164 0.099-0.058 0-0.225-0.014-0.301-0.014-0.205 0-0.425 0.021-0.483 0.022-0.064-0.002-0.136-0.013-0.147-0.098 0.005-0.073 0.064-0.107 0.144-0.122 0.175-0.044 0.172-0.093 0.178-0.112 0.010-0.136 0.010-0.511 0.010-0.711 0 0-0.020-0.087-0.025-0.099-0.055-0.117-0.271-0.469-0.435-0.718-0.169-0.246-0.183-0.266-0.318-0.3-0.074-0.018-0.137-0.046-0.145-0.126 0.017-0.096 0.094-0.094 0.154-0.098 0.059 0.002 0.234 0.019 0.395 0.019 0.092 0 0.121-0.007 0.262-0.007 0.060 0 0.134 0.025 0.136 0.099-0.003 0.067-0.057 0.105-0.123 0.123-0.019 0.005-0.033 0.009-0.041 0.013 0.005 0.011 0.014 0.033 0.030 0.060 0.037 0.070 0.261 0.444 0.416 0.698 0.112-0.169 0.335-0.535 0.412-0.662 0.021-0.038 0.028-0.063 0.028-0.071 0-0.002 0.001-0.017-0.092-0.038-0.069-0.018-0.117-0.068-0.117-0.127 0.025-0.108 0.102-0.085 0.14-0.091 0.091 0 0.146 0.003 0.223 0.003 0.126 0 0.325-0.014 0.384-0.014 0.047 0.006 0.113-0.001 0.133 0.094-0.009 0.086-0.077 0.101-0.136 0.121zM45.929 28.395c0-0.102-0.316-0.419-0.42-0.419 0.103 0 0.42-0.316 0.42-0.418 0 0.103 0.316 0.418 0.419 0.418-0.103 0-0.419 0.317-0.419 0.419z"></path>
<path d="M11.864 1.284l0.16 0.97c0.176 0.503 0.644 0.538 0.787 0.537 0.030 0 0.052-0.003 0.053-0.003h3.641c-0.012 0 0.010 0.003 0.044 0.003h0.015c0.159 0 0.603-0.050 0.768-0.506l0.169-1.009c0-0.005 0.014-0.078 0.014-0.181 0.012-0.21-0.105-0.684-0.617-0.721-0.020-0.003-0.050-0.007-0.086-0.007-0.161-0.009-0.468 0.094-0.667 0.495-0.009 0.022-0.049 0.129-0.12 0.238-0.072 0.114-0.173 0.195-0.218 0.194-0.020 0.001-0.023 0.004-0.041 0.004-0.044-0.021-0.119 0.038-0.185-0.272-0.021-0-0.097-0.952-0.876-1.027h-0.043c-0.781 0.075-0.86 1.027-0.879 1.025-0.069 0.312-0.141 0.252-0.187 0.271-0.020 0-0.020-0.001-0.022 0-0.064 0.014-0.155-0.095-0.227-0.204-0.066-0.105-0.12-0.208-0.12-0.207-0.212-0.422-0.516-0.525-0.678-0.518-0.032 0-0.058 0.003-0.079 0.007-0.518 0.034-0.636 0.509-0.624 0.721-0 0.105 0.016 0.181 0.017 0.189zM12.508 0.757l0.040 0.001c0.038 0.008 0.161-0.006 0.323 0.286 0.014-0.017 0.143 0.537 0.639 0.639 0.004 0 0.037 0.004 0.086 0.004 0.169 0.021 0.521-0.138 0.572-0.6 0-0.001 0.185-0.705 0.5-0.705l0.033-0c0.31 0 0.493 0.705 0.494 0.706 0.051 0.458 0.401 0.622 0.571 0.601 0.058 0 0.097-0.009 0.108-0.011 0.475-0.098 0.604-0.652 0.629-0.659 0.151-0.271 0.262-0.262 0.309-0.264l0.022 0c0.255 0.023 0.271 0.166 0.29 0.338 0 0.069-0.009 0.112-0.007 0.112l-0.163 0.983c-0.055 0.178-0.296 0.206-0.404 0.21-0.021 0-0.028-0.001-0.028-0.001h-3.709c-0.109-0.003-0.348-0.031-0.408-0.238l-0.156-0.949c-0.002-0.010-0.011-0.053-0.011-0.117 0.019-0.17 0.015-0.315 0.272-0.338z"></path>
<path d="M12.35 5.283c0 0.232-0.188 0.42-0.42 0.42s-0.42-0.188-0.42-0.42c0-0.232 0.188-0.42 0.42-0.42s0.42 0.188 0.42 0.42z"></path>
</symbol>
</defs>
</svg>
